<?xml version="1.0" encoding="utf-8"?>
<!-- Generator: Adobe Illustrator 23.0.5, SVG Export Plug-In . SVG Version: 6.00 Build 0)  -->
<svg version="1.1" id="Layer_1" xmlns="http://www.w3.org/2000/svg" xmlns:xlink="http://www.w3.org/1999/xlink" x="0px" y="0px"
	 viewBox="0 0 602.3 306.98" style="enable-background:new 0 0 602.3 306.98;" xml:space="preserve">
<style type="text/css">
	.st0{fill:#fffffe;}
</style>
<g>
	<path class="st0" d="M342.24,90.8c-2,0.21-4.07,0.83-6,0.54c-5.75-0.86-11.55-1.71-17.14-3.24c-5.03-1.37-6.83,0.97-8.33,5.07
		c-0.97,2.65-2.75,5-4.16,7.48c-1.52-2.3-3.71-4.43-4.38-6.95c-0.89-3.34-1.64-7.35-0.61-10.45c6.55-19.65,13.6-39.13,20.49-58.66
		c1.43-4.07,2.79-8.16,4.3-12.2c2.81-7.56,9.99-9.67,17.4-5.29c6.11,3.61,12.29,7.1,18.43,10.67c1.81,1.05,3.57,2.18,5.35,3.27
		c-0.59,0.78-1.18,1.57-1.77,2.35c-8.81-2.89-17.62-5.78-26.44-8.68c-0.14,0.38-0.27,0.76-0.41,1.15
		c8.42,3.54,16.84,7.08,25.26,10.62c-0.14,0.39-0.27,0.77-0.41,1.16c-8.83-3.19-17.66-6.37-26.5-9.56c-0.19,0.5-0.38,1.01-0.57,1.51
		c8.55,3.63,17.11,7.25,25.66,10.88c-0.17,0.42-0.34,0.84-0.51,1.26c-8.56-3.09-17.12-6.17-25.68-9.26
		c-0.18,0.48-0.36,0.95-0.53,1.43c8.23,3.53,16.45,7.06,24.68,10.59c-0.16,0.42-0.32,0.85-0.48,1.27
		c-8.33-3.01-16.66-6.02-24.99-9.03c-0.18,0.49-0.37,0.99-0.55,1.48c8.55,3.63,17.1,7.26,25.66,10.88c-0.15,0.39-0.3,0.79-0.45,1.18
		c-8.66-3.14-17.31-6.29-25.97-9.43c-0.21,0.5-0.42,1-0.64,1.49c8.36,3.53,16.73,7.07,25.09,10.6c-0.15,0.43-0.3,0.86-0.45,1.29
		c-8.52-3.09-17.04-6.18-25.56-9.27c-0.17,0.48-0.35,0.96-0.52,1.43c8.53,3.65,17.06,7.31,25.59,10.96c-0.15,0.4-0.29,0.8-0.44,1.2
		c-8.97-3.28-17.93-6.57-26.9-9.85c-0.19,0.53-0.38,1.05-0.58,1.58c8.72,3.7,17.45,7.4,26.17,11.11c-0.18,0.42-0.36,0.85-0.54,1.27
		c-8.68-3.16-17.37-6.31-26.05-9.47c-0.21,0.52-0.41,1.03-0.62,1.55c8.45,3.51,16.91,7.02,25.36,10.54
		c-0.17,0.45-0.35,0.9-0.52,1.35c-8.55-3.07-17.1-6.15-25.65-9.22c-0.2,0.5-0.4,1.01-0.6,1.51c7.73,3.21,15.46,6.41,23.19,9.62
		c-0.15,0.43-0.3,0.87-0.45,1.3c-7.84-2.71-15.68-5.41-23.52-8.12c-0.17,0.47-0.35,0.93-0.52,1.4c8.42,3.5,16.85,6.99,25.27,10.49
		c-0.14,0.4-0.27,0.8-0.41,1.19c-8.68-3.02-17.37-6.04-26.05-9.06c-0.19,0.54-0.39,1.07-0.58,1.61c8.68,3.54,17.36,7.08,26.05,10.61
		c-0.16,0.43-0.32,0.86-0.47,1.29c-8.89-3.15-17.77-6.3-26.66-9.46c-0.2,0.53-0.41,1.05-0.61,1.58c8.72,3.63,17.44,7.26,26.17,10.89
		c-0.17,0.42-0.35,0.85-0.52,1.27c-8.7-3.08-17.39-6.16-26.09-9.25c-0.21,0.52-0.41,1.04-0.62,1.56
		c8.43,3.41,16.86,6.83,25.28,10.24c-0.16,0.4-0.33,0.81-0.49,1.21c-8.68-2.97-17.35-5.93-26.03-8.9c-0.21,0.45-0.43,0.9-0.64,1.34
		c7.97,3.85,16.58,6.34,24.73,9.81c-0.13,0.42-0.26,0.84-0.4,1.26c-8.25-2.69-16.5-5.37-24.76-8.06c-0.17,0.5-0.34,0.99-0.51,1.49
		c8.29,3.18,16.59,6.36,24.88,9.54c-0.17,0.5-0.33,0.99-0.5,1.49c-8.59-2.78-17.17-5.56-25.76-8.33c-0.16,0.43-0.32,0.86-0.48,1.29
		c8.7,3.56,17.41,7.11,26.11,10.67C342.3,89.53,342.27,90.16,342.24,90.8z"/>
	<path class="st0" d="M21.94,158.9c0,6.49,0.05,12.48-0.02,18.46c-0.05,4.64,2,7.17,6.76,7.4c1,0.05,1.99,0.51,2.84,1.9
		c-8.8,0-17.6,0-26.39,0c-0.39-0.46-0.78-0.93-1.17-1.4c12.71-0.28,10.3-8.89,10.34-16.08c0.05-11.16,0.02-22.33-0.01-33.49
		c-0.02-7.46-0.21-7.64-7.33-9.35c-0.81-0.2-1.53-0.78-2.31-1.19c0.35-0.65,0.51-1.17,0.66-1.17c11.46,0.05,23-0.71,34.35,0.44
		c13.32,1.35,19.02,16.35,10.53,26.66c-2.35,2.86-6.38,4.33-10.44,6.96c8.9,8.53,11.92,22.91,25.7,28.03
		c-6.86,3.53-14.79,1.41-18.56-4.57c-3.96-6.28-8.5-12.21-12.26-18.6C31.57,157.71,27.25,158.33,21.94,158.9z M22.17,154.42
		c8.19,0.97,15.92,1.51,21.08-6.02c2.68-3.91,2.08-12.87-0.58-16.28c-3.48-4.46-12.8-6.09-20.5-3.49
		C22.17,137.03,22.17,145.49,22.17,154.42z"/>
	<path class="st0" d="M500.3,124.32c0.54-0.22,1.08-0.63,1.61-0.63c11.47,0.07,23-0.46,34.41,0.49c10.95,0.91,19.7,6.36,24.59,16.81
		c6,12.81,3.71,24.84-4.51,35.54c-5.12,6.67-13.09,9.89-21.36,10.35c-11.2,0.63-22.46,0.16-34.11-0.7c0.75-0.5,1.49-1.41,2.25-1.44
		c4.48-0.15,6.39-3.06,6.44-6.81c0.22-15.3,0.16-30.6,0.1-45.9c-0.01-3.48-2.54-4.73-5.53-5.37c-1.38-0.3-2.72-0.74-4.08-1.11
		C500.18,125.14,500.24,124.73,500.3,124.32z M518.1,128.03c0,17.19-0.12,33.82,0.19,50.44c0.03,1.58,2.49,4.15,4.18,4.5
		c7.57,1.57,15.05,0.32,21.5-3.86c9.9-6.42,13.92-24.96,8.37-36.59c-1.13-2.37-2.3-4.82-3.98-6.8
		C540.21,126.13,529.38,127.29,518.1,128.03z"/>
	<path class="st0" d="M204.31,155.11c0.08,19.54-12.5,32.95-30.61,33.38c-20.13,0.47-32.24-13.93-32.64-32.26
		c-0.43-19.51,13.51-34.77,31.6-34.41C190.32,122.17,204.99,134.24,204.31,155.11z M150.82,155.12c-0.12,7.97,1.15,15.55,6.37,21.97
		c8.52,10.48,24.77,10.82,32.83-1.91c7.01-11.07,6.13-23.12,2.71-34.66c-4.14-13.96-23.05-19.04-33.43-9.48
		C152.42,137.39,150.53,145.99,150.82,155.12z"/>
	<path class="st0" d="M295.12,213.58c6.63,0,12.54,0,18.41,0c3.77,8.13,7.7,16.13,11.2,24.3c2.69,6.27,7.5,8.42,13.82,8.36
		c6.24-0.06,11.57,1.69,16.07,6.39c6.11,6.39,8.1,16.2,4.68,24.4c-0.61,1.46-0.45,3.79,0.32,5.18c3.27,5.93,6.93,11.65,10.4,17.47
		c0.55,0.93,0.87,1.99,1.3,2.99c-0.38,0.34-0.75,0.68-1.13,1.01c-4.2-4.14-8.71-8.03-12.51-12.5c-3.44-4.04-6.16-6.18-12.26-4.21
		c-9.39,3.03-21.34-5.27-23.34-15.17c-0.71-3.5-1.22-7.57-0.13-10.81c3.76-11.23-1.39-19.1-8.58-26.6
		c-5.16-5.38-10.17-10.92-15.18-16.44C297.11,216.79,296.34,215.37,295.12,213.58z M339.94,250.2c-7.99,0.04-13.98,6.8-14.06,15.59
		c-0.09,10.78,8.09,17.18,16.56,17.55c7.73,0.34,14.82-7.59,14.74-15.8C357.1,258.67,348.63,250.15,339.94,250.2z"/>
	<path class="st0" d="M256.49,124.19c7.78,0,15.57,0,23.35,0c0.07,0.38,0.13,0.76,0.2,1.14c-0.91,0.4-1.8,1.1-2.73,1.16
		c-5.08,0.34-6.75,3.4-6.77,7.99c-0.02,9.32,0.33,18.67-0.29,27.95c-0.36,5.49-1.15,11.5-3.71,16.2
		c-5.74,10.53-16.81,11.29-28.7,8.61c-8.91-2-14.37-10.2-14.61-20.88c-0.22-9.98,0.01-19.97,0-29.96
		c-0.01-7.93-0.05-7.91-7.65-10.21c-0.52-0.16-0.93-0.71-2.48-1.95c9.99,0,18.69,0,28.61,0c-1.49,1.24-1.91,1.89-2.4,1.96
		c-6.6,0.93-7.55,0.48-7.59,9.48c-0.05,10.98,0.13,21.97,0.26,32.95c0.13,10.4,7.63,14.91,16.77,15.19
		c9.46,0.29,16.07-6.06,16.34-15.65c0.31-11.14-0.04-22.3,0.18-33.45c0.09-4.77-1.47-7.63-6.43-8.25c-1.01-0.13-1.94-0.88-2.91-1.34
		C256.12,124.82,256.31,124.51,256.49,124.19z"/>
	<path class="st0" d="M370.84,187.31c13.46-20.36,26.18-39.61,39.2-59.29c-8.71,0-16.67-0.49-24.5,0.29c-2.46,0.24-5,3.61-6.71,6.08
		c-1.38,2-1.58,4.81-3.5,7.1c0-5.86,0-11.72,0-17.7c15.32,0,30.34,0,46.63,0c-13.18,20.06-25.78,39.24-38.52,58.64
		c9.4,0,18.15,0.34,26.86-0.14c4.33-0.24,6.8-3.76,7.96-7.91c0.51-1.84,1-3.68,2.32-5.39c1.91,6.36-0.45,12.28-1.46,18.33
		C403.3,187.31,388.01,187.31,370.84,187.31z"/>
	<path class="st0" d="M301.05,101.09c-6.11,0-11.21,0.15-16.29-0.13c-0.91-0.05-2.23-1.73-2.52-2.87
		c-3.62-14.5-7.12-29.03-10.58-43.57c-3-12.6-5.95-25.21-8.79-37.85c-0.53-2.37-0.44-4.88-0.64-7.33c0.71-0.15,1.43-0.31,2.14-0.46
		C276.47,39.29,288.57,69.71,301.05,101.09z"/>
	<path class="st0" d="M103.03,122.37c3.82,9.31,7.68,18.6,11.46,27.93c3.92,9.66,7.41,19.51,11.85,28.91
		c1.44,3.05,5.32,4.96,8.23,7.52c-7.68,0-15.78,0-24.56,0c0.91-0.83,1.35-1.56,1.96-1.74c7.14-2.15,6.21-2.21,4.62-9.16
		c-2.12-9.27-7.46-10.94-15.43-9.61c-0.81,0.13-1.66,0.02-2.49,0.01c-11.39-0.04-11.39-0.04-14.92,10.46
		c-1.72,5.1-0.7,6.9,4.47,8.14c0.84,0.2,1.58,0.78,2.2,2.01c-7.3,0-14.59,0-22.48,0c3.28-2.38,6.7-3.78,8.37-6.32
		c2.68-4.09,4.32-8.9,6.2-13.48c5.59-13.61,11.07-27.28,16.65-40.9c0.58-1.41,1.52-2.67,2.3-4
		C101.99,122.22,102.51,122.3,103.03,122.37z M110.84,161.83c-3.52-9.14-6.74-17.51-10.55-27.42c-3.91,9.89-7.26,18.36-10.84,27.42
		C96.73,161.83,103.28,161.83,110.84,161.83z"/>
	<path class="st0" d="M494.8,186.76c-7.68,0-15.66,0-23.7,0c0.09-0.62,0.05-1.16,0.2-1.23c7.19-2.96,7.19-2.95,4.67-10.86
		c-2.72-8.54-2.72-8.54-11.69-8.55c-2.5,0-4.99,0-7.49,0c-9.21,0-12.77,3.38-13.64,12.89c-0.3,3.28,0.51,5.6,4.38,5.74
		c0.93,0.03,1.85,0.62,2.57,2.09c-7.15,0-14.29,0-21.44,0c-0.1-0.34-0.2-0.68-0.3-1.01c2.05-0.98,4.47-1.57,6.06-3.04
		c1.76-1.63,3.12-3.93,4.06-6.19c5.1-12.21,9.98-24.52,15.02-36.76c2.14-5.21,4.42-10.37,6.79-15.48c0.4-0.86,1.6-1.36,2.43-2.02
		c0.63,0.86,1.48,1.64,1.86,2.6c7.18,17.97,14.08,36.05,21.66,53.85C487.63,182,491.77,184.03,494.8,186.76z M460.32,134.55
		c-3.94,9.9-7.29,18.31-10.81,27.15c7.78,0,14.46,0,21.49,0C467.52,152.85,464.22,144.45,460.32,134.55z"/>
	<path class="st0" d="M304.14,157.4c0,6.54-0.05,12.69,0.01,18.83c0.06,6.21,1.63,7.83,7.83,8.46c0.73,0.07,1.44,0.36,2.4,0.62
		c-2.75,2.49-22.63,2.87-26.49,0.81c0.12-0.3,0.18-0.79,0.39-0.87c8.47-3.24,8.49-3.24,8.5-12.58c0.02-11.99,0.02-23.99,0.01-35.98
		c-0.01-8.45-0.24-8.71-8.56-10.42c-0.57-0.12-1.09-0.51-1.5-1.94c15.93,0,31.85,0,47.61,0c0,5.06,0,10.54,0,16.01
		c-0.39,0.06-0.79,0.12-1.18,0.18c-0.83-2.33-1.58-4.7-2.51-6.99c-1.6-3.95-4.45-6.02-8.86-5.9c-4.66,0.12-9.33,0.1-13.99,0.01
		c-2.44-0.04-3.68,0.71-3.64,3.41c0.11,7.15,0.04,14.31,0.04,21.39c11.72,3.56,16.49,1.21,19.62-9.49
		c2.34,1.78,2.98,19.65,0.74,24.71c-3.52-2.68-0.66-9.77-6.81-10.2C313.32,157.15,308.87,157.4,304.14,157.4z"/>
	<path class="st0" d="M288.79,213.35c9.23,10.24,9.21,10.22,1.66,20.02c-2.11,2.74-4.08,5.59-6.08,8.41
		c-4.14,5.84-5.8,11.65-3,19.03c3.73,9.84-1.24,21.3-11.75,25.85c-8.69,3.77-19.46,0.35-24.26-8.81
		c-6.04-11.53,0.07-29.38,16.78-29.85c12.51-0.36,16.94-7.38,20.29-17.17C284.35,225.21,286.49,219.65,288.79,213.35z M278.2,267.31
		c0.08-8.75-6.22-15.38-14.59-15.33c-9.63,0.06-16.99,7.28-17.14,16.84c-0.13,8.43,6.8,15.77,15.06,15.92
		C270.28,284.91,278.11,276.72,278.2,267.31z"/>
	<path class="st0" d="M573.37,124.26c9.08,0,18.16,0,28.64,0c-1.81,1.3-2.36,1.95-3.02,2.12c-7.58,1.89-7.78,2.04-7.81,9.55
		c-0.06,12.99-0.06,25.98-0.07,38.97c-0.01,7.5,0.51,8.11,7.87,9.92c0.52,0.13,0.91,0.75,2.3,1.98c-9.9,0-18.68,0-27.47,0
		c-0.08-0.45-0.15-0.9-0.23-1.36c1.2-0.28,2.39-0.69,3.61-0.81c3.99-0.41,5.95-2.54,5.94-6.55c-0.01-15.32-0.09-30.65,0.06-45.97
		c0.03-3.48-1.85-4.66-4.64-5.33c-1.79-0.43-3.59-0.78-5.39-1.17C573.23,125.17,573.3,124.71,573.37,124.26z"/>
</g>
</svg>
