<?xml version="1.0" encoding="UTF-8"?>
<svg id="Layer_1" data-name="Layer 1" xmlns="http://www.w3.org/2000/svg" xmlns:xlink="http://www.w3.org/1999/xlink" viewBox="0 0 400 400">
  <defs>
    <style>
      .cls-1 {
        fill: url(#linear-gradient-2);
      }

      .cls-2 {
        fill: url(#linear-gradient-6);
      }

      .cls-3 {
        fill: url(#linear-gradient-5);
      }

      .cls-4 {
        fill: #0f1419;
      }

      .cls-5 {
        fill: url(#linear-gradient-7);
      }

      .cls-6 {
        fill: url(#linear-gradient-9);
      }

      .cls-7 {
        fill: url(#linear-gradient-3);
      }

      .cls-8 {
        fill: url(#linear-gradient);
      }

      .cls-9 {
        fill: url(#linear-gradient-4);
      }

      .cls-10 {
        fill: url(#linear-gradient-8);
      }
    </style>
    <linearGradient id="linear-gradient" x1="158.64" y1="217.74" x2="158.64" y2="191.82" gradientUnits="userSpaceOnUse">
      <stop offset="0" stop-color="#2f80ed"/>
      <stop offset="1" stop-color="#8adeff"/>
    </linearGradient>
    <linearGradient id="linear-gradient-2" x1="246.38" y1="216.97" x2="246.38" y2="191.94" gradientUnits="userSpaceOnUse">
      <stop offset="0" stop-color="#2f80ed"/>
      <stop offset="1" stop-color="#8adeff"/>
    </linearGradient>
    <linearGradient id="linear-gradient-3" x1="236.22" y1="204.3" x2="236.22" y2="197.34" gradientUnits="userSpaceOnUse">
      <stop offset="0" stop-color="#2f80ed"/>
      <stop offset="1" stop-color="#8adeff"/>
    </linearGradient>
    <linearGradient id="linear-gradient-4" x1="249.77" y1="212.64" x2="249.77" y2="206.19" gradientUnits="userSpaceOnUse">
      <stop offset="0" stop-color="#2f80ed"/>
      <stop offset="1" stop-color="#8adeff"/>
    </linearGradient>
    <linearGradient id="linear-gradient-5" x1="181.67" y1="218.26" x2="181.67" y2="197.15" gradientUnits="userSpaceOnUse">
      <stop offset="0" stop-color="#2f80ed"/>
      <stop offset="1" stop-color="#8adeff"/>
    </linearGradient>
    <linearGradient id="linear-gradient-6" x1="213.5" y1="219.34" x2="213.5" y2="194.87" gradientUnits="userSpaceOnUse">
      <stop offset="0" stop-color="#2f80ed"/>
      <stop offset="1" stop-color="#8adeff"/>
    </linearGradient>
    <linearGradient id="linear-gradient-7" x1="265.15" y1="220.21" x2="265.15" y2="195.09" gradientUnits="userSpaceOnUse">
      <stop offset="0" stop-color="#2f80ed"/>
      <stop offset="1" stop-color="#8adeff"/>
    </linearGradient>
    <linearGradient id="linear-gradient-8" x1="288.47" y1="217.2" x2="288.47" y2="197.2" gradientUnits="userSpaceOnUse">
      <stop offset="0" stop-color="#2f80ed"/>
      <stop offset="1" stop-color="#8adeff"/>
    </linearGradient>
    <linearGradient id="linear-gradient-9" x1="120.06" y1="218.16" x2="120.06" y2="182.68" gradientUnits="userSpaceOnUse">
      <stop offset="0" stop-color="#2f80ed"/>
      <stop offset="1" stop-color="#8adeff"/>
    </linearGradient>
  </defs>
  <rect class="cls-4" width="400" height="400"/>
  <g>
    <g>
      <path class="cls-8" d="m157.42,200.16h0c0,.68.55,1.23,1.23,1.23h0c4.52,0,8.18,3.66,8.18,8.18h0c0,4.52-3.66,8.18-8.18,8.18h-4.7c-1.92,0-3.48-1.56-3.48-3.48h0c0-1.92,1.56-3.48,3.48-3.48h4.7c.68,0,1.23-.55,1.23-1.23h0c0-.68-.55-1.23-1.23-1.23h0c-4.52,0-8.18-3.66-8.18-8.18h0c0-4.52,3.66-8.18,8.18-8.18h4.7c1.92,0,3.48,1.56,3.48,3.48h0c0,1.92-1.56,3.48-3.48,3.48h-4.7c-.68,0-1.23.55-1.23,1.23Z"/>
      <g>
        <path class="cls-1" d="m252.28,199.91v1.77c0,1.38-1.12,2.5-2.5,2.5h-1.77c-1.38,0-2.5,1.12-2.5,2.5v8.55c0,1.38-1.12,2.5-2.5,2.5h0c-1.38,0-2.5-1.12-2.5-2.5v-20.34c0-1.38,1.12-2.5,2.5-2.5h0c1.38,0,2.5,1.12,2.5,2.5h0c0,1.38,1.12,2.5,2.5,2.5h1.77c1.38,0,2.5,1.12,2.5,2.5Z"/>
        <rect class="cls-7" x="233.71" y="197.4" width="5.01" height="6.78" rx="2.5" ry="2.5"/>
        <rect class="cls-9" x="247.26" y="205.95" width="5.01" height="6.77" rx="2.5" ry="2.5"/>
      </g>
      <path class="cls-3" d="m172.28,202.01c.78-1.55,1.83-2.75,3.17-3.58s2.83-1.25,4.48-1.25c1.41,0,2.65.29,3.71.86,1.06.57,1.88,1.33,2.45,2.26v-2.83h0c3.39,0,6.13,2.74,6.13,6.13v7.74c0,3.39-2.74,6.13-6.13,6.13h0v-2.83c-.59.93-1.43,1.69-2.49,2.26-1.06.57-2.3.86-3.71.86-1.63,0-3.11-.42-4.44-1.27s-2.39-2.05-3.17-3.62c-.78-1.56-1.16-3.37-1.16-5.43s.39-3.86,1.16-5.41Zm12.54,1.83c-.85-.88-1.88-1.33-3.1-1.33s-2.25.43-3.1,1.31c-.85.87-1.27,2.07-1.27,3.6s.43,2.74,1.27,3.64c.85.9,1.88,1.34,3.1,1.34s2.25-.44,3.1-1.32,1.27-2.09,1.27-3.62-.42-2.74-1.27-3.62Z"/>
      <path class="cls-2" d="m228.12,199.79c1.47,1.5,2.2,3.6,2.2,6.27v8.64c0,1.68-1.36,3.05-3.05,3.05h0c-1.68,0-3.05-1.36-3.05-3.05v-7.81c0-1.29-.34-2.29-1.02-2.99-.68-.71-1.62-1.06-2.81-1.06s-2.13.35-2.81,1.06c-.68.7-1.02,1.7-1.02,2.99v7.81c0,1.68-1.36,3.05-3.05,3.05h0c-1.68,0-3.05-1.36-3.05-3.05v-7.81c0-1.29-.34-2.29-1.02-2.99-.68-.71-1.62-1.06-2.81-1.06s-2.13.35-2.81,1.06c-.68.7-1.02,1.7-1.02,2.99v7.81c0,1.68-1.36,3.05-3.05,3.05h-.04c-1.68,0-3.05-1.36-3.05-3.05v-13.91c0-1.68,1.36-3.05,3.05-3.05h3.08v2.51c.62-.83,1.43-1.5,2.44-1.99,1-.49,2.14-.73,3.4-.73,1.5,0,2.85.32,4.03.97,1.18.65,2.11,1.57,2.78,2.76.69-1.1,1.64-1.99,2.83-2.69,1.19-.69,2.49-1.04,3.91-1.04,2.48,0,4.46.75,5.93,2.26Z"/>
      <path class="cls-5" d="m255.75,202.01c.78-1.55,1.83-2.75,3.17-3.58s2.83-1.25,4.48-1.25c1.41,0,2.65.29,3.71.86,1.06.57,1.88,1.33,2.45,2.26v-2.83h0c3.39,0,6.13,2.74,6.13,6.13v7.74c0,3.39-2.74,6.13-6.13,6.13h0v-2.83c-.59.93-1.43,1.69-2.49,2.26-1.06.57-2.3.86-3.71.86-1.63,0-3.11-.42-4.44-1.27s-2.39-2.05-3.17-3.62c-.78-1.56-1.16-3.37-1.16-5.43s.39-3.86,1.16-5.41Zm12.54,1.83c-.85-.88-1.88-1.33-3.1-1.33s-2.25.43-3.1,1.31c-.85.87-1.27,2.07-1.27,3.6s.43,2.74,1.27,3.64c.85.9,1.88,1.34,3.1,1.34s2.25-.44,3.1-1.32,1.27-2.09,1.27-3.62-.42-2.74-1.27-3.62Z"/>
      <path class="cls-10" d="m291.59,217.18l-2.3-3.33c-.54-.78-1.7-.73-2.17.08l-1.84,3.16c-.23.4-.65.64-1.11.64h-3.53c-1.02,0-1.63-1.13-1.08-1.98l4.85-7.51c.28-.44.27-1-.02-1.43l-4.89-7.06c-.59-.85.02-2.02,1.06-2.02h3.76c.42,0,.82.21,1.06.55l2.3,3.31c.54.77,1.69.73,2.17-.09l1.83-3.14c.23-.4.65-.64,1.11-.64h3.49c1.03,0,1.64,1.14,1.07,2l-4.89,7.34c-.29.44-.29,1.01.01,1.45l4.98,7.19c.59.85-.02,2.02-1.06,2.02h-3.75c-.42,0-.82-.21-1.06-.56Z"/>
    </g>
    <path class="cls-6" d="m132.6,187.46c-6.93-6.93-18.16-6.93-25.09,0-6.93,6.93-6.93,18.16,0,25.09,6.93,6.93,18.16,6.93,25.09,0,6.93-6.93,6.93-18.16,0-25.09Zm-17.95,9.17c0,1.59-1.28,2.87-2.87,2.87-.79,0-1.51-.32-2.03-.84-.52-.52-.84-1.24-.84-2.03v-2.03c0-1.59,1.28-2.88,2.87-2.88.79,0,1.51.32,2.03.85.52.52.84,1.24.84,2.03v2.03Zm15.55,9.79c0,1.59-1.28,2.88-2.87,2.88h0c-1.59,0-2.87-1.29-2.87-2.88v-2.02c0-1.59,1.28-2.87,2.87-2.87h0c1.59,0,2.87,1.28,2.87,2.87v2.02Zm0-9.79c0,1.59-1.28,2.87-2.87,2.87h-2.03c-1.59,0-2.87,1.28-2.87,2.87v9.8c0,1.59-1.28,2.87-2.87,2.87-.79,0-1.51-.32-2.03-.84-.52-.52-.84-1.24-.84-2.03v-23.32c0-1.58,1.28-2.87,2.87-2.87.79,0,1.51.32,2.03.84.52.52.84,1.24.84,2.03s.32,1.51.84,2.03c.52.52,1.24.84,2.03.84h2.03c1.59,0,2.87,1.29,2.87,2.88v2.03Z"/>
  </g>
</svg>