<svg width="134" height="40" viewBox="0 0 134 40" fill="none" xmlns="http://www.w3.org/2000/svg">
<path d="M1.01959 20.6251C0.465236 20.6251 0.015625 20.1754 0.015625 19.6211C0.015625 19.0667 0.465236 18.6171 1.01959 18.6171C1.57394 18.6171 2.02355 19.0667 2.02355 19.6211C2.02355 20.1754 1.57394 20.6251 1.01959 20.6251Z" fill="#6F2268"/>
<path d="M1.01959 16.6016C0.465236 16.6016 0.015625 16.152 0.015625 15.5976C0.015625 15.0433 0.465236 14.5936 1.01959 14.5936C1.57394 14.5936 2.02355 15.0433 2.02355 15.5976C2.02355 16.152 1.57394 16.6016 1.01959 16.6016Z" fill="#992479"/>
<path d="M4.04587 27.8585C3.51706 27.8585 3.08789 27.4293 3.08789 26.9005C3.08789 26.3717 3.51706 25.9425 4.04587 25.9425C4.57467 25.9425 5.00385 26.3717 5.00385 26.9005C5.00385 27.4293 4.57467 27.8585 4.04587 27.8585Z" fill="#6F2268"/>
<path d="M4.04587 24.0226C3.51706 24.0226 3.08789 23.5934 3.08789 23.0646C3.08789 22.5358 3.51706 22.1066 4.04587 22.1066C4.57467 22.1066 5.00385 22.5358 5.00385 23.0646C5.00385 23.5934 4.57467 24.0226 4.04587 24.0226Z" fill="#6F2268"/>
<path d="M4.04587 20.1893C3.51706 20.1893 3.08789 19.7601 3.08789 19.2313C3.08789 18.7025 3.51706 18.2733 4.04587 18.2733C4.57467 18.2733 5.00385 18.7025 5.00385 19.2313C5.00385 19.7601 4.57467 20.1893 4.04587 20.1893Z" fill="#6F2268"/>
<path d="M4.04587 16.3534C3.51706 16.3534 3.08789 15.9242 3.08789 15.3954C3.08789 14.8666 3.51706 14.4374 4.04587 14.4374C4.57467 14.4374 5.00385 14.8666 5.00385 15.3954C5.00385 15.9242 4.57467 16.3534 4.04587 16.3534Z" fill="#6F2268"/>
<path d="M6.69911 30.7497C6.19585 30.7497 5.78711 30.341 5.78711 29.8377C5.78711 29.3344 6.19585 28.9257 6.69911 28.9257C7.20237 28.9257 7.61111 29.3344 7.61111 29.8377C7.61111 30.341 7.20237 30.7497 6.69911 30.7497Z" fill="#6F2268"/>
<path d="M6.69911 27.0986C6.19585 27.0986 5.78711 26.6898 5.78711 26.1866C5.78711 25.6833 6.19585 25.2745 6.69911 25.2745C7.20237 25.2745 7.61111 25.6833 7.61111 26.1866C7.61111 26.6898 7.20237 27.0986 6.69911 27.0986Z" fill="#6F2268"/>
<path d="M6.69911 23.4515C6.19585 23.4515 5.78711 23.0427 5.78711 22.5395C5.78711 22.0362 6.19585 21.6274 6.69911 21.6274C7.20237 21.6274 7.61111 22.0362 7.61111 22.5395C7.61111 23.0427 7.20237 23.4515 6.69911 23.4515Z" fill="#992479"/>
<path d="M6.69911 19.8017C6.19585 19.8017 5.78711 19.393 5.78711 18.8897C5.78711 18.3864 6.19585 17.9777 6.69911 17.9777C7.20237 17.9777 7.61111 18.3864 7.61111 18.8897C7.61111 19.393 7.20237 19.8017 6.69911 19.8017Z" fill="#6F2268"/>
<path d="M6.69911 16.1521C6.19585 16.1521 5.78711 15.7433 5.78711 15.24C5.78711 14.7368 6.19585 14.328 6.69911 14.328C7.20237 14.328 7.61111 14.7368 7.61111 15.24C7.61111 15.7433 7.20237 16.1521 6.69911 16.1521Z" fill="#992479"/>
<path d="M9.16875 33.2554C8.69103 33.2554 8.30273 32.8671 8.30273 32.3894C8.30273 31.9116 8.69103 31.5233 9.16875 31.5233C9.64646 31.5233 10.0348 31.9116 10.0348 32.3894C10.0348 32.8671 9.64646 33.2554 9.16875 33.2554Z" fill="#992479"/>
<path d="M9.16875 29.7892C8.69103 29.7892 8.30273 29.4009 8.30273 28.9232C8.30273 28.4454 8.69103 28.0571 9.16875 28.0571C9.64646 28.0571 10.0348 28.4454 10.0348 28.9232C10.0348 29.4009 9.64646 29.7892 9.16875 29.7892Z" fill="#992479"/>
<path d="M9.16875 26.3244C8.69103 26.3244 8.30273 25.9361 8.30273 25.4583C8.30273 24.9806 8.69103 24.5923 9.16875 24.5923C9.64646 24.5923 10.0348 24.9806 10.0348 25.4583C10.0348 25.9361 9.64646 26.3244 9.16875 26.3244Z" fill="#6F2268"/>
<path d="M9.16875 22.8609C8.69103 22.8609 8.30273 22.4726 8.30273 21.9948C8.30273 21.5171 8.69103 21.1288 9.16875 21.1288C9.64646 21.1288 10.0348 21.5171 10.0348 21.9948C10.0348 22.4726 9.64646 22.8609 9.16875 22.8609Z" fill="#6F2268"/>
<path d="M9.16875 19.3947C8.69103 19.3947 8.30273 19.0064 8.30273 18.5286C8.30273 18.0509 8.69103 17.6626 9.16875 17.6626C9.64646 17.6626 10.0348 18.0509 10.0348 18.5286C10.0348 19.0064 9.64646 19.3947 9.16875 19.3947Z" fill="#6F2268"/>
<path d="M9.16875 15.9298C8.69103 15.9298 8.30273 15.5415 8.30273 15.0638C8.30273 14.5861 8.69103 14.1978 9.16875 14.1978C9.64646 14.1978 10.0348 14.5861 10.0348 15.0638C10.0348 15.5415 9.64646 15.9298 9.16875 15.9298Z" fill="#6F2268"/>
<path d="M11.445 35.3834C10.9929 35.3834 10.625 35.0155 10.625 34.5633C10.625 34.1112 10.9929 33.7433 11.445 33.7433C11.8972 33.7433 12.2651 34.1112 12.2651 34.5633C12.2651 35.0155 11.8972 35.3834 11.445 35.3834Z" fill="#6F2268"/>
<path d="M11.445 32.1061C10.9929 32.1061 10.625 31.7382 10.625 31.286C10.625 30.8338 10.9929 30.4659 11.445 30.4659C11.8972 30.4659 12.2651 30.8338 12.2651 31.286C12.2651 31.7382 11.8972 32.1061 11.445 32.1061Z" fill="#6F2268"/>
<path d="M11.445 28.8275C10.9929 28.8275 10.625 28.4596 10.625 28.0074C10.625 27.5553 10.9929 27.1874 11.445 27.1874C11.8972 27.1874 12.2651 27.5553 12.2651 28.0074C12.2651 28.4596 11.8972 28.8275 11.445 28.8275Z" fill="#6F2268"/>
<path d="M11.445 25.5462C10.9929 25.5462 10.625 25.1784 10.625 24.7262C10.625 24.274 10.9929 23.9061 11.445 23.9061C11.8972 23.9061 12.2651 24.274 12.2651 24.7262C12.2651 25.1784 11.8972 25.5462 11.445 25.5462Z" fill="#6F2268"/>
<path d="M11.445 22.2689C10.9929 22.2689 10.625 21.901 10.625 21.4488C10.625 20.9967 10.9929 20.6288 11.445 20.6288C11.8972 20.6288 12.2651 20.9967 12.2651 21.4488C12.2651 21.901 11.8972 22.2689 11.445 22.2689Z" fill="#992479"/>
<path d="M11.445 18.9876C10.9929 18.9876 10.625 18.6198 10.625 18.1676C10.625 17.7154 10.9929 17.3475 11.445 17.3475C11.8972 17.3475 12.2651 17.7154 12.2651 18.1676C12.2651 18.6198 11.8972 18.9876 11.445 18.9876Z" fill="#6F2268"/>
<path d="M11.445 15.7076C10.9929 15.7076 10.625 15.3397 10.625 14.8876C10.625 14.4354 10.9929 14.0675 11.445 14.0675C11.8972 14.0675 12.2651 14.4354 12.2651 14.8876C12.2651 15.3397 11.8972 15.7076 11.445 15.7076Z" fill="#6F2268"/>
<path d="M13.5338 34.0793C13.1072 34.0793 12.7598 33.7318 12.7598 33.3052C12.7598 32.8786 13.1072 32.5311 13.5338 32.5311C13.9604 32.5311 14.3079 32.8786 14.3079 33.3052C14.3079 33.7318 13.9604 34.0793 13.5338 34.0793Z" fill="#992479"/>
<path d="M13.5338 30.9803C13.1072 30.9803 12.7598 30.6328 12.7598 30.2062C12.7598 29.7796 13.1072 29.4321 13.5338 29.4321C13.9604 29.4321 14.3079 29.7796 14.3079 30.2062C14.3079 30.6328 13.9604 30.9803 13.5338 30.9803Z" fill="#992479"/>
<path d="M13.5338 27.8865C13.1072 27.8865 12.7598 27.5391 12.7598 27.1125C12.7598 26.6858 13.1072 26.3384 13.5338 26.3384C13.9604 26.3384 14.3079 26.6858 14.3079 27.1125C14.3079 27.5391 13.9604 27.8865 13.5338 27.8865Z" fill="#992479"/>
<path d="M13.5338 24.7941C13.1072 24.7941 12.7598 24.4467 12.7598 24.02C12.7598 23.5934 13.1072 23.246 13.5338 23.246C13.9604 23.246 14.3079 23.5934 14.3079 24.02C14.3079 24.4467 13.9604 24.7941 13.5338 24.7941Z" fill="#992479"/>
<path d="M13.5338 21.6977C13.1072 21.6977 12.7598 21.3502 12.7598 20.9236C12.7598 20.497 13.1072 20.1495 13.5338 20.1495C13.9604 20.1495 14.3079 20.497 14.3079 20.9236C14.3079 21.3502 13.9604 21.6977 13.5338 21.6977Z" fill="#6F2268"/>
<path d="M13.5338 18.6027C13.1072 18.6027 12.7598 18.2553 12.7598 17.8286C12.7598 17.402 13.1072 17.0546 13.5338 17.0546C13.9604 17.0546 14.3079 17.402 14.3079 17.8286C14.3079 18.2553 13.9604 18.6027 13.5338 18.6027Z" fill="#6F2268"/>
<path d="M13.5338 15.5102C13.1072 15.5102 12.7598 15.1627 12.7598 14.7361C12.7598 14.3095 13.1072 13.962 13.5338 13.962C13.9604 13.962 14.3079 14.3095 14.3079 14.7361C14.3079 15.1627 13.9604 15.5102 13.5338 15.5102Z" fill="#992479"/>
<path d="M15.6402 35.4404C15.2391 35.4404 14.9121 35.116 14.9121 34.7123C14.9121 34.3087 15.2365 33.9843 15.6402 33.9843C16.0438 33.9843 16.3682 34.3087 16.3682 34.7123C16.3682 35.116 16.0438 35.4404 15.6402 35.4404Z" fill="#6F2268"/>
<path d="M15.6402 32.7151C15.2391 32.7151 14.9121 32.3906 14.9121 31.987C14.9121 31.5834 15.2365 31.2589 15.6402 31.2589C16.0438 31.2589 16.3682 31.5834 16.3682 31.987C16.3682 32.3906 16.0438 32.7151 15.6402 32.7151Z" fill="#6F2268"/>
<path d="M15.6402 29.624C15.2391 29.624 14.9121 29.2996 14.9121 28.8959C14.9121 28.4923 15.2365 28.1678 15.6402 28.1678C16.0438 28.1678 16.3682 28.4923 16.3682 28.8959C16.3682 29.2996 16.0438 29.624 15.6402 29.624Z" fill="#6F2268"/>
<path d="M15.6402 26.7139C15.2391 26.7139 14.9121 26.3894 14.9121 25.9858C14.9121 25.5821 15.2365 25.2577 15.6402 25.2577C16.0438 25.2577 16.3682 25.5821 16.3682 25.9858C16.3682 26.3894 16.0438 26.7139 15.6402 26.7139Z" fill="#6F2268"/>
<path d="M15.6402 23.9912C15.2391 23.9912 14.9121 23.6668 14.9121 23.2631C14.9121 22.8595 15.2365 22.535 15.6402 22.535C16.0438 22.535 16.3682 22.8595 16.3682 23.2631C16.3682 23.6668 16.0438 23.9912 15.6402 23.9912Z" fill="#6F2268"/>
<path d="M15.6402 21.0797C15.2391 21.0797 14.9121 20.7553 14.9121 20.3516C14.9121 19.948 15.2365 19.6235 15.6402 19.6235C16.0438 19.6235 16.3682 19.948 16.3682 20.3516C16.3682 20.7553 16.0438 21.0797 15.6402 21.0797Z" fill="#6F2268"/>
<path d="M15.6402 18.1709C15.2391 18.1709 14.9121 17.8464 14.9121 17.4428C14.9121 17.0392 15.2365 16.7147 15.6402 16.7147C16.0438 16.7147 16.3682 17.0392 16.3682 17.4428C16.3682 17.8464 16.0438 18.1709 15.6402 18.1709Z" fill="#6F2268"/>
<path d="M15.6402 15.262C15.2391 15.262 14.9121 14.9375 14.9121 14.5339C14.9121 14.1302 15.2365 13.8058 15.6402 13.8058C16.0438 13.8058 16.3682 14.1302 16.3682 14.5339C16.3682 14.9375 16.0438 15.262 15.6402 15.262Z" fill="#6F2268"/>
<path d="M17.7348 34.1049C17.3593 34.1049 17.0527 33.8009 17.0527 33.4228C17.0527 33.0447 17.3567 32.7407 17.7348 32.7407C18.1129 32.7407 18.4169 33.0447 18.4169 33.4228C18.4169 33.8009 18.1129 34.1049 17.7348 34.1049Z" fill="#6F2268"/>
<path d="M17.7348 31.3862C17.3593 31.3862 17.0527 31.0822 17.0527 30.7041C17.0527 30.326 17.3567 30.022 17.7348 30.022C18.1129 30.022 18.4169 30.326 18.4169 30.7041C18.4169 31.0822 18.1129 31.3862 17.7348 31.3862Z" fill="#6F2268"/>
<path d="M17.7348 28.6596C17.3593 28.6596 17.0527 28.3556 17.0527 27.9775C17.0527 27.5994 17.3567 27.2954 17.7348 27.2954C18.1129 27.2954 18.4169 27.5994 18.4169 27.9775C18.4169 28.3556 18.1129 28.6596 17.7348 28.6596Z" fill="#6F2268"/>
<path d="M17.7348 25.9356C17.3593 25.9356 17.0527 25.6316 17.0527 25.2535C17.0527 24.8754 17.3567 24.5714 17.7348 24.5714C18.1129 24.5714 18.4169 24.8754 18.4169 25.2535C18.4169 25.6316 18.1129 25.9356 17.7348 25.9356Z" fill="#992479"/>
<path d="M17.7348 23.2091C17.3593 23.2091 17.0527 22.905 17.0527 22.527C17.0527 22.1489 17.3567 21.8448 17.7348 21.8448C18.1129 21.8448 18.4169 22.1489 18.4169 22.527C18.4169 22.905 18.1129 23.2091 17.7348 23.2091Z" fill="#6F2268"/>
<path d="M17.7348 20.4877C17.3593 20.4877 17.0527 20.1837 17.0527 19.8056C17.0527 19.4275 17.3567 19.1235 17.7348 19.1235C18.1129 19.1235 18.4169 19.4275 18.4169 19.8056C18.4169 20.1837 18.1129 20.4877 17.7348 20.4877Z" fill="#992479"/>
<path d="M17.7348 17.7612C17.3593 17.7612 17.0527 17.4572 17.0527 17.0791C17.0527 16.701 17.3567 16.397 17.7348 16.397C18.1129 16.397 18.4169 16.701 18.4169 17.0791C18.4169 17.4572 18.1129 17.7612 17.7348 17.7612Z" fill="#6F2268"/>
<path d="M17.7348 15.036C17.3593 15.036 17.0527 14.7319 17.0527 14.3539C17.0527 13.9758 17.3567 13.6718 17.7348 13.6718C18.1129 13.6718 18.4169 13.9758 18.4169 14.3539C18.4169 14.7319 18.1129 15.036 17.7348 15.036Z" fill="#992479"/>
<path d="M17.7348 12.3106C17.3593 12.3106 17.0527 12.0066 17.0527 11.6285C17.0527 11.2504 17.3567 10.9464 17.7348 10.9464C18.1129 10.9464 18.4169 11.2504 18.4169 11.6285C18.4169 12.0066 18.1129 12.3106 17.7348 12.3106Z" fill="#6F2268"/>
<path d="M17.7348 9.58674C17.3593 9.58674 17.0527 9.28273 17.0527 8.90464C17.0527 8.52654 17.3567 8.22253 17.7348 8.22253C18.1129 8.22253 18.4169 8.52654 18.4169 8.90464C18.4169 9.28273 18.1129 9.58674 17.7348 9.58674Z" fill="#992479"/>
<path d="M17.7348 6.86274C17.3593 6.86274 17.0527 6.55873 17.0527 6.18064C17.0527 5.80254 17.3567 5.49854 17.7348 5.49854C18.1129 5.49854 18.4169 5.80254 18.4169 6.18064C18.4169 6.55873 18.1129 6.86274 17.7348 6.86274Z" fill="#6F2268"/>
<path d="M17.7348 3.76643C17.3593 3.76643 17.0527 3.46242 17.0527 3.08432C17.0527 2.70623 17.3567 2.40222 17.7348 2.40222C18.1129 2.40222 18.4169 2.70623 18.4169 3.08432C18.4169 3.46242 18.1129 3.76643 17.7348 3.76643Z" fill="#6F2268"/>
<path d="M19.8334 35.1315C19.4834 35.1315 19.1973 34.8479 19.1973 34.4954C19.1973 34.1428 19.4808 33.8593 19.8334 33.8593C20.1859 33.8593 20.4695 34.1428 20.4695 34.4954C20.4695 34.8479 20.1859 35.1315 19.8334 35.1315Z" fill="#6F2268"/>
<path d="M19.8334 32.5911C19.4834 32.5911 19.1973 32.3075 19.1973 31.955C19.1973 31.6024 19.4808 31.3188 19.8334 31.3188C20.1859 31.3188 20.4695 31.6024 20.4695 31.955C20.4695 32.3075 20.1859 32.5911 19.8334 32.5911Z" fill="#992479"/>
<path d="M19.8334 30.0534C19.4834 30.0534 19.1973 29.7698 19.1973 29.4172C19.1973 29.0647 19.4808 28.7811 19.8334 28.7811C20.1859 28.7811 20.4695 29.0647 20.4695 29.4172C20.4695 29.7698 20.1859 30.0534 19.8334 30.0534Z" fill="#6F2268"/>
<path d="M19.8334 27.5143C19.4834 27.5143 19.1973 27.2307 19.1973 26.8782C19.1973 26.5256 19.4808 26.2421 19.8334 26.2421C20.1859 26.2421 20.4695 26.5256 20.4695 26.8782C20.4695 27.2307 20.1859 27.5143 19.8334 27.5143Z" fill="#6F2268"/>
<path d="M19.8334 24.9752C19.4834 24.9752 19.1973 24.6917 19.1973 24.3391C19.1973 23.9866 19.4808 23.703 19.8334 23.703C20.1859 23.703 20.4695 23.9866 20.4695 24.3391C20.4695 24.6917 20.1859 24.9752 19.8334 24.9752Z" fill="#6F2268"/>
<path d="M19.8334 22.4323C19.4834 22.4323 19.1973 22.1487 19.1973 21.7962C19.1973 21.4436 19.4808 21.16 19.8334 21.16C20.1859 21.16 20.4695 21.4436 20.4695 21.7962C20.4695 22.1487 20.1859 22.4323 19.8334 22.4323Z" fill="#6F2268"/>
<path d="M19.8334 19.8971C19.4834 19.8971 19.1973 19.6135 19.1973 19.261C19.1973 18.9084 19.4808 18.6249 19.8334 18.6249C20.1859 18.6249 20.4695 18.9084 20.4695 19.261C20.4695 19.6135 20.1859 19.8971 19.8334 19.8971Z" fill="#6F2268"/>
<path d="M19.8334 17.3528C19.4834 17.3528 19.1973 17.0692 19.1973 16.7167C19.1973 16.3641 19.4808 16.0806 19.8334 16.0806C20.1859 16.0806 20.4695 16.3641 20.4695 16.7167C20.4695 17.0692 20.1859 17.3528 19.8334 17.3528Z" fill="#6F2268"/>
<path d="M19.8334 14.8151C19.4834 14.8151 19.1973 14.5315 19.1973 14.179C19.1973 13.8264 19.4808 13.5428 19.8334 13.5428C20.1859 13.5428 20.4695 13.8264 20.4695 14.179C20.4695 14.5315 20.1859 14.8151 19.8334 14.8151Z" fill="#6F2268"/>
<path d="M19.8334 12.276C19.4834 12.276 19.1973 11.9924 19.1973 11.6399C19.1973 11.2874 19.4808 11.0038 19.8334 11.0038C20.1859 11.0038 20.4695 11.2874 20.4695 11.6399C20.4695 11.9924 20.1859 12.276 19.8334 12.276Z" fill="#6F2268"/>
<path d="M19.8334 9.73561C19.4834 9.73561 19.1973 9.45204 19.1973 9.0995C19.1973 8.74695 19.4808 8.46338 19.8334 8.46338C20.1859 8.46338 20.4695 8.74695 20.4695 9.0995C20.4695 9.45204 20.1859 9.73561 19.8334 9.73561Z" fill="#992479"/>
<path d="M19.8334 7.19655C19.4834 7.19655 19.1973 6.91298 19.1973 6.56043C19.1973 6.20789 19.4808 5.92432 19.8334 5.92432C20.1859 5.92432 20.4695 6.20789 20.4695 6.56043C20.4695 6.91298 20.1859 7.19655 19.8334 7.19655Z" fill="#992479"/>
<path d="M19.8334 4.47255C19.4834 4.47255 19.1973 4.18898 19.1973 3.83643C19.1973 3.48389 19.4808 3.20032 19.8334 3.20032C20.1859 3.20032 20.4695 3.48389 20.4695 3.83643C20.4695 4.18898 20.1859 4.47255 19.8334 4.47255Z" fill="#6F2268"/>
<path d="M21.738 33.4028C21.4135 33.4028 21.1504 33.1397 21.1504 32.8152C21.1504 32.4908 21.4135 32.2277 21.738 32.2277C22.0624 32.2277 22.3255 32.4908 22.3255 32.8152C22.3255 33.1397 22.0624 33.4028 21.738 33.4028Z" fill="#6F2268"/>
<path d="M21.738 31.0461C21.4135 31.0461 21.1504 30.783 21.1504 30.4586C21.1504 30.1341 21.4135 29.871 21.738 29.871C22.0624 29.871 22.3255 30.1341 22.3255 30.4586C22.3255 30.783 22.0624 31.0461 21.738 31.0461Z" fill="#6F2268"/>
<path d="M21.738 28.6893C21.4135 28.6893 21.1504 28.4262 21.1504 28.1017C21.1504 27.7773 21.4135 27.5142 21.738 27.5142C22.0624 27.5142 22.3255 27.7773 22.3255 28.1017C22.3255 28.4262 22.0624 28.6893 21.738 28.6893Z" fill="#6F2268"/>
<path d="M21.738 26.3364C21.4135 26.3364 21.1504 26.0733 21.1504 25.7488C21.1504 25.4244 21.4135 25.1613 21.738 25.1613C22.0624 25.1613 22.3255 25.4244 22.3255 25.7488C22.3255 26.0733 22.0624 26.3364 21.738 26.3364Z" fill="#992479"/>
<path d="M21.738 23.9836C21.4135 23.9836 21.1504 23.7205 21.1504 23.3961C21.1504 23.0716 21.4135 22.8085 21.738 22.8085C22.0624 22.8085 22.3255 23.0716 22.3255 23.3961C22.3255 23.7205 22.0624 23.9836 21.738 23.9836Z" fill="#6F2268"/>
<path d="M21.738 21.6268C21.4135 21.6268 21.1504 21.3637 21.1504 21.0392C21.1504 20.7148 21.4135 20.4517 21.738 20.4517C22.0624 20.4517 22.3255 20.7148 22.3255 21.0392C22.3255 21.3637 22.0624 21.6268 21.738 21.6268Z" fill="#6F2268"/>
<path d="M21.738 19.2753C21.4135 19.2753 21.1504 19.0121 21.1504 18.6877C21.1504 18.3632 21.4135 18.1001 21.738 18.1001C22.0624 18.1001 22.3255 18.3632 22.3255 18.6877C22.3255 19.0121 22.0624 19.2753 21.738 19.2753Z" fill="#6F2268"/>
<path d="M21.738 16.9211C21.4135 16.9211 21.1504 16.658 21.1504 16.3335C21.1504 16.0091 21.4135 15.746 21.738 15.746C22.0624 15.746 22.3255 16.0091 22.3255 16.3335C22.3255 16.658 22.0624 16.9211 21.738 16.9211Z" fill="#992479"/>
<path d="M21.738 14.5643C21.4135 14.5643 21.1504 14.3012 21.1504 13.9767C21.1504 13.6523 21.4135 13.3892 21.738 13.3892C22.0624 13.3892 22.3255 13.6523 22.3255 13.9767C22.3255 14.3012 22.0624 14.5643 21.738 14.5643Z" fill="#6F2268"/>
<path d="M21.738 12.2102C21.4135 12.2102 21.1504 11.9471 21.1504 11.6226C21.1504 11.2982 21.4135 11.035 21.738 11.035C22.0624 11.035 22.3255 11.2982 22.3255 11.6226C22.3255 11.9471 22.0624 12.2102 21.738 12.2102Z" fill="#6F2268"/>
<path d="M21.738 9.85338C21.4135 9.85338 21.1504 9.59025 21.1504 9.2658C21.1504 8.94136 21.4135 8.67822 21.738 8.67822C22.0624 8.67822 22.3255 8.94136 22.3255 9.2658C22.3255 9.59025 22.0624 9.85338 21.738 9.85338Z" fill="#6F2268"/>
<path d="M21.738 7.50047C21.4135 7.50047 21.1504 7.23734 21.1504 6.9129C21.1504 6.58845 21.4135 6.32532 21.738 6.32532C22.0624 6.32532 22.3255 6.58845 22.3255 6.9129C22.3255 7.23734 22.0624 7.50047 21.738 7.50047Z" fill="#6F2268"/>
<path d="M21.738 5.14769C21.4135 5.14769 21.1504 4.88456 21.1504 4.56011C21.1504 4.23567 21.4135 3.97253 21.738 3.97253C22.0624 3.97253 22.3255 4.23567 22.3255 4.56011C22.3255 4.88456 22.0624 5.14769 21.738 5.14769Z" fill="#6F2268"/>
<path d="M23.651 31.6755C23.3521 31.6755 23.1094 31.4328 23.1094 31.1339C23.1094 30.835 23.3521 30.5923 23.651 30.5923C23.9498 30.5923 24.1925 30.835 24.1925 31.1339C24.1925 31.4328 23.9498 31.6755 23.651 31.6755Z" fill="#6F2268"/>
<path d="M23.651 29.5036C23.3521 29.5036 23.1094 29.2609 23.1094 28.962C23.1094 28.6631 23.3521 28.4204 23.651 28.4204C23.9498 28.4204 24.1925 28.6631 24.1925 28.962C24.1925 29.2609 23.9498 29.5036 23.651 29.5036Z" fill="#992479"/>
<path d="M23.651 27.3343C23.3521 27.3343 23.1094 27.0916 23.1094 26.7927C23.1094 26.4938 23.3521 26.2511 23.651 26.2511C23.9498 26.2511 24.1925 26.4938 24.1925 26.7927C24.1925 27.0916 23.9498 27.3343 23.651 27.3343Z" fill="#6F2268"/>
<path d="M23.651 25.1677C23.3521 25.1677 23.1094 24.925 23.1094 24.6261C23.1094 24.3272 23.3521 24.0845 23.651 24.0845C23.9498 24.0845 24.1925 24.3272 24.1925 24.6261C24.1925 24.925 23.9498 25.1677 23.651 25.1677Z" fill="#6F2268"/>
<path d="M23.651 22.9984C23.3521 22.9984 23.1094 22.7557 23.1094 22.4568C23.1094 22.1579 23.3521 21.9152 23.651 21.9152C23.9498 21.9152 24.1925 22.1579 24.1925 22.4568C24.1925 22.7557 23.9498 22.9984 23.651 22.9984Z" fill="#992479"/>
<path d="M23.651 20.8265C23.3521 20.8265 23.1094 20.5838 23.1094 20.2849C23.1094 19.986 23.3521 19.7433 23.651 19.7433C23.9498 19.7433 24.1925 19.986 24.1925 20.2849C24.1925 20.5838 23.9498 20.8265 23.651 20.8265Z" fill="#6F2268"/>
<path d="M23.651 18.6546C23.3521 18.6546 23.1094 18.4119 23.1094 18.113C23.1094 17.8141 23.3521 17.5714 23.651 17.5714C23.9498 17.5714 24.1925 17.8141 24.1925 18.113C24.1925 18.4119 23.9498 18.6546 23.651 18.6546Z" fill="#992479"/>
<path d="M23.651 16.4866C23.3521 16.4866 23.1094 16.2439 23.1094 15.945C23.1094 15.6461 23.3521 15.4034 23.651 15.4034C23.9498 15.4034 24.1925 15.6461 24.1925 15.945C24.1925 16.2439 23.9498 16.4866 23.651 16.4866Z" fill="#6F2268"/>
<path d="M23.651 14.3187C23.3521 14.3187 23.1094 14.076 23.1094 13.7771C23.1094 13.4782 23.3521 13.2355 23.651 13.2355C23.9498 13.2355 24.1925 13.4782 24.1925 13.7771C24.1925 14.076 23.9498 14.3187 23.651 14.3187Z" fill="#6F2268"/>
<path d="M23.651 12.1507C23.3521 12.1507 23.1094 11.908 23.1094 11.6091C23.1094 11.3102 23.3521 11.0675 23.651 11.0675C23.9498 11.0675 24.1925 11.3102 24.1925 11.6091C24.1925 11.908 23.9498 12.1507 23.651 12.1507Z" fill="#992479"/>
<path d="M23.651 9.9776C23.3521 9.9776 23.1094 9.7349 23.1094 9.436C23.1094 9.1371 23.3521 8.89441 23.651 8.89441C23.9498 8.89441 24.1925 9.1371 24.1925 9.436C24.1925 9.7349 23.9498 9.9776 23.651 9.9776Z" fill="#6F2268"/>
<path d="M23.651 7.80829C23.3521 7.80829 23.1094 7.56559 23.1094 7.26669C23.1094 6.96779 23.3521 6.7251 23.651 6.7251C23.9498 6.7251 24.1925 6.96779 24.1925 7.26669C24.1925 7.56559 23.9498 7.80829 23.651 7.80829Z" fill="#992479"/>
<path d="M23.651 5.64032C23.3521 5.64032 23.1094 5.39762 23.1094 5.09872C23.1094 4.79982 23.3521 4.55713 23.651 4.55713C23.9498 4.55713 24.1925 4.79982 24.1925 5.09872C24.1925 5.39762 23.9498 5.64032 23.651 5.64032Z" fill="#6F2268"/>
<path d="M25.5522 29.9208C25.2789 29.9208 25.0566 29.6985 25.0566 29.4252C25.0566 29.1518 25.2789 28.9296 25.5522 28.9296C25.8256 28.9296 26.0478 29.1518 26.0478 29.4252C26.0478 29.6985 25.8256 29.9208 25.5522 29.9208Z" fill="#6F2268"/>
<path d="M25.5522 27.9351C25.2789 27.9351 25.0566 27.7128 25.0566 27.4395C25.0566 27.1661 25.2789 26.9438 25.5522 26.9438C25.8256 26.9438 26.0478 27.1661 26.0478 27.4395C26.0478 27.7128 25.8256 27.9351 25.5522 27.9351Z" fill="#6F2268"/>
<path d="M25.5522 25.9493C25.2789 25.9493 25.0566 25.7271 25.0566 25.4537C25.0566 25.1804 25.2789 24.9581 25.5522 24.9581C25.8256 24.9581 26.0478 25.1804 26.0478 25.4537C26.0478 25.7271 25.8256 25.9493 25.5522 25.9493Z" fill="#992479"/>
<path d="M25.5522 23.965C25.2789 23.965 25.0566 23.7427 25.0566 23.4694C25.0566 23.196 25.2789 22.9738 25.5522 22.9738C25.8256 22.9738 26.0478 23.196 26.0478 23.4694C26.0478 23.7427 25.8256 23.965 25.5522 23.965Z" fill="#6F2268"/>
<path d="M25.5522 21.9806C25.2789 21.9806 25.0566 21.7583 25.0566 21.485C25.0566 21.2116 25.2789 20.9894 25.5522 20.9894C25.8256 20.9894 26.0478 21.2116 26.0478 21.485C26.0478 21.7583 25.8256 21.9806 25.5522 21.9806Z" fill="#6F2268"/>
<path d="M25.5522 19.9976C25.2789 19.9976 25.0566 19.7753 25.0566 19.502C25.0566 19.2286 25.2789 19.0063 25.5522 19.0063C25.8256 19.0063 26.0478 19.2286 26.0478 19.502C26.0478 19.7753 25.8256 19.9976 25.5522 19.9976Z" fill="#992479"/>
<path d="M25.5522 18.0106C25.2789 18.0106 25.0566 17.7884 25.0566 17.515C25.0566 17.2417 25.2789 17.0194 25.5522 17.0194C25.8256 17.0194 26.0478 17.2417 26.0478 17.515C26.0478 17.7884 25.8256 18.0106 25.5522 18.0106Z" fill="#6F2268"/>
<path d="M25.5522 16.0275C25.2789 16.0275 25.0566 15.8052 25.0566 15.5319C25.0566 15.2585 25.2789 15.0363 25.5522 15.0363C25.8256 15.0363 26.0478 15.2585 26.0478 15.5319C26.0478 15.8052 25.8256 16.0275 25.5522 16.0275Z" fill="#6F2268"/>
<path d="M25.5522 14.0419C25.2789 14.0419 25.0566 13.8196 25.0566 13.5463C25.0566 13.2729 25.2789 13.0507 25.5522 13.0507C25.8256 13.0507 26.0478 13.2729 26.0478 13.5463C26.0478 13.8196 25.8256 14.0419 25.5522 14.0419Z" fill="#6F2268"/>
<path d="M25.5522 12.0587C25.2789 12.0587 25.0566 11.8365 25.0566 11.5631C25.0566 11.2898 25.2789 11.0675 25.5522 11.0675C25.8256 11.0675 26.0478 11.2898 26.0478 11.5631C26.0478 11.8365 25.8256 12.0587 25.5522 12.0587Z" fill="#6F2268"/>
<path d="M25.5522 10.0731C25.2789 10.0731 25.0566 9.85087 25.0566 9.57752C25.0566 9.30417 25.2789 9.08191 25.5522 9.08191C25.8256 9.08191 26.0478 9.30417 26.0478 9.57752C26.0478 9.85087 25.8256 10.0731 25.5522 10.0731Z" fill="#992479"/>
<path d="M25.5522 8.08741C25.2789 8.08741 25.0566 7.86515 25.0566 7.5918C25.0566 7.31845 25.2789 7.09619 25.5522 7.09619C25.8256 7.09619 26.0478 7.31845 26.0478 7.5918C26.0478 7.86515 25.8256 8.08741 25.5522 8.08741Z" fill="#6F2268"/>
<path d="M25.5522 6.10438C25.2789 6.10438 25.0566 5.88212 25.0566 5.60877C25.0566 5.33542 25.2789 5.11316 25.5522 5.11316C25.8256 5.11316 26.0478 5.33542 26.0478 5.60877C26.0478 5.88212 25.8256 6.10438 25.5522 6.10438Z" fill="#6F2268"/>
<path d="M27.313 28.2714H27.2645C27.0295 28.2714 26.8379 28.0798 26.8379 27.8448V27.7963C26.8379 27.5612 27.0295 27.3696 27.2645 27.3696H27.313C27.5481 27.3696 27.7397 27.5612 27.7397 27.7963V27.8448C27.7397 28.0798 27.5481 28.2714 27.313 28.2714Z" fill="#992479"/>
<path d="M27.313 26.472H27.2645C27.0295 26.472 26.8379 26.2804 26.8379 26.0454V25.9968C26.8379 25.7618 27.0295 25.5702 27.2645 25.5702H27.313C27.5481 25.5702 27.7397 25.7618 27.7397 25.9968V26.0454C27.7397 26.2804 27.5481 26.472 27.313 26.472Z" fill="#6F2268"/>
<path d="M27.2875 24.6712C27.0397 24.6712 26.8379 24.4694 26.8379 24.2216C26.8379 23.9738 27.0397 23.772 27.2875 23.772C27.5353 23.772 27.7371 23.9738 27.7371 24.2216C27.7371 24.4694 27.5353 24.6712 27.2875 24.6712Z" fill="#6F2268"/>
<path d="M27.2875 22.8743C27.0397 22.8743 26.8379 22.6725 26.8379 22.4247C26.8379 22.1769 27.0397 21.9751 27.2875 21.9751C27.5353 21.9751 27.7371 22.1769 27.7371 22.4247C27.7371 22.6725 27.5353 22.8743 27.2875 22.8743Z" fill="#992479"/>
<path d="M27.2875 21.0722C27.0397 21.0722 26.8379 20.8704 26.8379 20.6226C26.8379 20.3748 27.0397 20.173 27.2875 20.173C27.5353 20.173 27.7371 20.3748 27.7371 20.6226C27.7371 20.8704 27.5353 21.0722 27.2875 21.0722Z" fill="#6F2268"/>
<path d="M27.2875 19.2714C27.0397 19.2714 26.8379 19.0696 26.8379 18.8218C26.8379 18.574 27.0397 18.3722 27.2875 18.3722C27.5353 18.3722 27.7371 18.574 27.7371 18.8218C27.7371 19.0696 27.5353 19.2714 27.2875 19.2714Z" fill="#6F2268"/>
<path d="M27.2875 17.472C27.0397 17.472 26.8379 17.2702 26.8379 17.0224C26.8379 16.7746 27.0397 16.5728 27.2875 16.5728C27.5353 16.5728 27.7371 16.7746 27.7371 17.0224C27.7371 17.2702 27.5353 17.472 27.2875 17.472Z" fill="#992479"/>
<path d="M27.2875 15.6712C27.0397 15.6712 26.8379 15.4694 26.8379 15.2216C26.8379 14.9738 27.0397 14.772 27.2875 14.772C27.5353 14.772 27.7371 14.9738 27.7371 15.2216C27.7371 15.4694 27.5353 15.6712 27.2875 15.6712Z" fill="#6F2268"/>
<path d="M27.2875 13.873C27.0397 13.873 26.8379 13.6712 26.8379 13.4234C26.8379 13.1756 27.0397 12.9738 27.2875 12.9738C27.5353 12.9738 27.7371 13.1756 27.7371 13.4234C27.7371 13.6712 27.5353 13.873 27.2875 13.873Z" fill="#992479"/>
<path d="M27.2875 12.0722C27.0397 12.0722 26.8379 11.8704 26.8379 11.6226C26.8379 11.3748 27.0397 11.173 27.2875 11.173C27.5353 11.173 27.7371 11.3748 27.7371 11.6226C27.7371 11.8704 27.5353 12.0722 27.2875 12.0722Z" fill="#6F2268"/>
<path d="M27.2875 10.2741C27.0397 10.2741 26.8379 10.0723 26.8379 9.8245C26.8379 9.5767 27.0397 9.37488 27.2875 9.37488C27.5353 9.37488 27.7371 9.5767 27.7371 9.8245C27.7371 10.0723 27.5353 10.2741 27.2875 10.2741Z" fill="#6F2268"/>
<path d="M27.2875 8.47725C27.0397 8.47725 26.8379 8.27543 26.8379 8.02763C26.8379 7.77982 27.0397 7.578 27.2875 7.578C27.5353 7.578 27.7371 7.77982 27.7371 8.02763C27.7371 8.27543 27.5353 8.47725 27.2875 8.47725Z" fill="#6F2268"/>
<path d="M27.2875 6.67379C27.0397 6.67379 26.8379 6.47197 26.8379 6.22416C26.8379 5.97636 27.0397 5.77454 27.2875 5.77454C27.5353 5.77454 27.7371 5.97636 27.7371 6.22416C27.7371 6.47197 27.5353 6.67379 27.2875 6.67379Z" fill="#992479"/>
<path d="M29.0032 24.9283C28.781 24.9283 28.5996 24.7469 28.5996 24.5246C28.5996 24.3024 28.781 24.121 29.0032 24.121C29.2255 24.121 29.4069 24.3024 29.4069 24.5246C29.4069 24.7469 29.2255 24.9283 29.0032 24.9283Z" fill="#6F2268"/>
<path d="M29.0032 23.3136C28.781 23.3136 28.5996 23.1322 28.5996 22.91C28.5996 22.6877 28.781 22.5063 29.0032 22.5063C29.2255 22.5063 29.4069 22.6877 29.4069 22.91C29.4069 23.1322 29.2255 23.3136 29.0032 23.3136Z" fill="#6F2268"/>
<path d="M29.0032 21.699C28.781 21.699 28.5996 21.5176 28.5996 21.2954C28.5996 21.0731 28.781 20.8917 29.0032 20.8917C29.2255 20.8917 29.4069 21.0731 29.4069 21.2954C29.4069 21.5176 29.2255 21.699 29.0032 21.699Z" fill="#6F2268"/>
<path d="M29.0032 20.0832C28.781 20.0832 28.5996 19.9018 28.5996 19.6795C28.5996 19.4573 28.781 19.2759 29.0032 19.2759C29.2255 19.2759 29.4069 19.4573 29.4069 19.6795C29.4069 19.9018 29.2255 20.0832 29.0032 20.0832Z" fill="#992479"/>
<path d="M29.0032 18.4699C28.781 18.4699 28.5996 18.2885 28.5996 18.0662C28.5996 17.844 28.781 17.6626 29.0032 17.6626C29.2255 17.6626 29.4069 17.844 29.4069 18.0662C29.4069 18.2885 29.2255 18.4699 29.0032 18.4699Z" fill="#6F2268"/>
<path d="M29.0032 16.8553C28.781 16.8553 28.5996 16.6739 28.5996 16.4516C28.5996 16.2294 28.781 16.048 29.0032 16.048C29.2255 16.048 29.4069 16.2294 29.4069 16.4516C29.4069 16.6739 29.2255 16.8553 29.0032 16.8553Z" fill="#6F2268"/>
<path d="M29.0032 15.2408C28.781 15.2408 28.5996 15.0594 28.5996 14.8371C28.5996 14.6149 28.781 14.4335 29.0032 14.4335C29.2255 14.4335 29.4069 14.6149 29.4069 14.8371C29.4069 15.0594 29.2255 15.2408 29.0032 15.2408Z" fill="#992479"/>
<path d="M29.0032 13.6248C28.781 13.6248 28.5996 13.4434 28.5996 13.2211C28.5996 12.9989 28.781 12.8175 29.0032 12.8175C29.2255 12.8175 29.4069 12.9989 29.4069 13.2211C29.4069 13.4434 29.2255 13.6248 29.0032 13.6248Z" fill="#6F2268"/>
<path d="M29.0032 12.0115C28.781 12.0115 28.5996 11.8301 28.5996 11.6079C28.5996 11.3856 28.781 11.2042 29.0032 11.2042C29.2255 11.2042 29.4069 11.3856 29.4069 11.6079C29.4069 11.8301 29.2255 12.0115 29.0032 12.0115Z" fill="#992479"/>
<path d="M29.0032 10.3957C28.781 10.3957 28.5996 10.2143 28.5996 9.99202C28.5996 9.76976 28.781 9.58838 29.0032 9.58838C29.2255 9.58838 29.4069 9.76976 29.4069 9.99202C29.4069 10.2143 29.2255 10.3957 29.0032 10.3957Z" fill="#6F2268"/>
<path d="M29.0032 8.78104C28.781 8.78104 28.5996 8.59965 28.5996 8.3774C28.5996 8.15514 28.781 7.97375 29.0032 7.97375C29.2255 7.97375 29.4069 8.15514 29.4069 8.3774C29.4069 8.59965 29.2255 8.78104 29.0032 8.78104Z" fill="#992479"/>
<path d="M29.0032 7.16653C28.781 7.16653 28.5996 6.98515 28.5996 6.76289C28.5996 6.54064 28.781 6.35925 29.0032 6.35925C29.2255 6.35925 29.4069 6.54064 29.4069 6.76289C29.4069 6.98515 29.2255 7.16653 29.0032 7.16653Z" fill="#6F2268"/>
<path d="M30.5608 20.5263C30.3641 20.5263 30.2031 20.3654 30.2031 20.1687C30.2031 19.972 30.3641 19.811 30.5608 19.811C30.7575 19.811 30.9184 19.972 30.9184 20.1687C30.9184 20.3654 30.7575 20.5263 30.5608 20.5263Z" fill="#6F2268"/>
<path d="M30.5608 19.098C30.3641 19.098 30.2031 18.9371 30.2031 18.7403C30.2031 18.5436 30.3641 18.3827 30.5608 18.3827C30.7575 18.3827 30.9184 18.5436 30.9184 18.7403C30.9184 18.9371 30.7575 19.098 30.5608 19.098Z" fill="#6F2268"/>
<path d="M30.5608 17.6683C30.3641 17.6683 30.2031 17.5074 30.2031 17.3107C30.2031 17.1139 30.3641 16.953 30.5608 16.953C30.7575 16.953 30.9184 17.1139 30.9184 17.3107C30.9184 17.5074 30.7575 17.6683 30.5608 17.6683Z" fill="#992479"/>
<path d="M30.5608 16.2398C30.3641 16.2398 30.2031 16.0789 30.2031 15.8822C30.2031 15.6855 30.3641 15.5245 30.5608 15.5245C30.7575 15.5245 30.9184 15.6855 30.9184 15.8822C30.9184 16.0789 30.7575 16.2398 30.5608 16.2398Z" fill="#6F2268"/>
<path d="M30.5608 14.8102C30.3641 14.8102 30.2031 14.6492 30.2031 14.4525C30.2031 14.2558 30.3641 14.0948 30.5608 14.0948C30.7575 14.0948 30.9184 14.2558 30.9184 14.4525C30.9184 14.6492 30.7575 14.8102 30.5608 14.8102Z" fill="#6F2268"/>
<path d="M30.5608 13.3766C30.3641 13.3766 30.2031 13.2156 30.2031 13.0189C30.2031 12.8222 30.3641 12.6613 30.5608 12.6613C30.7575 12.6613 30.9184 12.8222 30.9184 13.0189C30.9184 13.2156 30.7575 13.3766 30.5608 13.3766Z" fill="#992479"/>
<path d="M30.5608 11.9496C30.3641 11.9496 30.2031 11.7886 30.2031 11.5919C30.2031 11.3952 30.3641 11.2343 30.5608 11.2343C30.7575 11.2343 30.9184 11.3952 30.9184 11.5919C30.9184 11.7886 30.7575 11.9496 30.5608 11.9496Z" fill="#6F2268"/>
<path d="M30.5608 10.5199C30.3641 10.5199 30.2031 10.3589 30.2031 10.1622C30.2031 9.96551 30.3641 9.80457 30.5608 9.80457C30.7575 9.80457 30.9184 9.96551 30.9184 10.1622C30.9184 10.3589 30.7575 10.5199 30.5608 10.5199Z" fill="#992479"/>
<path d="M30.5608 9.08885C30.3641 9.08885 30.2031 8.9279 30.2031 8.73119C30.2031 8.53448 30.3641 8.37354 30.5608 8.37354C30.7575 8.37354 30.9184 8.53448 30.9184 8.73119C30.9184 8.9279 30.7575 9.08885 30.5608 9.08885Z" fill="#6F2268"/>
<path d="M30.5608 7.6605C30.3641 7.6605 30.2031 7.49956 30.2031 7.30285C30.2031 7.10614 30.3641 6.94519 30.5608 6.94519C30.7575 6.94519 30.9184 7.10614 30.9184 7.30285C30.9184 7.49956 30.7575 7.6605 30.5608 7.6605Z" fill="#992479"/>
<path d="M1.20709 24.4557C0.65274 24.4557 0.203125 24.0061 0.203125 23.4517C0.203125 22.8974 0.65274 22.4478 1.20709 22.4478C1.76144 22.4478 2.21105 22.8974 2.21105 23.4517C2.21105 24.0061 1.76144 24.4557 1.20709 24.4557Z" fill="#992479"/>
<path d="M15.6402 38.5367C15.2391 38.5367 14.9121 38.2123 14.9121 37.8087C14.9121 37.405 15.2365 37.0806 15.6402 37.0806C16.0438 37.0806 16.3682 37.405 16.3682 37.8087C16.3682 38.2123 16.0438 38.5367 15.6402 38.5367Z" fill="#6F2268"/>
<path d="M13.5338 37.1703C13.1072 37.1703 12.7598 36.8229 12.7598 36.3963C12.7598 35.9696 13.1072 35.6222 13.5338 35.6222C13.9604 35.6222 14.3079 35.9696 14.3079 36.3963C14.3079 36.8229 13.9604 37.1703 13.5338 37.1703Z" fill="#992479"/>
<path d="M17.7348 36.8301C17.3593 36.8301 17.0527 36.5261 17.0527 36.148C17.0527 35.7699 17.3567 35.4659 17.7348 35.4659C18.1129 35.4659 18.4169 35.7699 18.4169 36.148C18.4169 36.5261 18.1129 36.8301 17.7348 36.8301Z" fill="#992479"/>
<path d="M29.0032 26.5454C28.781 26.5454 28.5996 26.3641 28.5996 26.1418C28.5996 25.9195 28.781 25.7382 29.0032 25.7382C29.2255 25.7382 29.4069 25.9195 29.4069 26.1418C29.4069 26.3641 29.2255 26.5454 29.0032 26.5454Z" fill="#992479"/>
<path d="M30.5608 22.1449C30.3641 22.1449 30.2031 21.9839 30.2031 21.7872C30.2031 21.5905 30.3641 21.4296 30.5608 21.4296C30.7575 21.4296 30.9184 21.5905 30.9184 21.7872C30.9184 21.9839 30.7575 22.1449 30.5608 22.1449Z" fill="#992479"/>
<path d="M30.5608 23.9977C30.3641 23.9977 30.2031 23.8367 30.2031 23.64C30.2031 23.4433 30.3641 23.2823 30.5608 23.2823C30.7575 23.2823 30.9184 23.4433 30.9184 23.64C30.9184 23.8367 30.7575 23.9977 30.5608 23.9977Z" fill="#6F2268"/>
<path d="M30.1799 25.2959C29.9832 25.2959 29.8223 25.1349 29.8223 24.9382C29.8223 24.7415 29.9832 24.5806 30.1799 24.5806C30.3766 24.5806 30.5376 24.7415 30.5376 24.9382C30.5376 25.1349 30.3766 25.2959 30.1799 25.2959Z" fill="#6F2268"/>
<path d="M1.03462 12.6421C0.462387 12.6421 0 12.1797 0 11.6074C0 11.0352 0.462387 10.5728 1.03462 10.5728C1.60686 10.5728 2.06924 11.0352 2.06924 11.6074C2.06924 12.1797 1.60686 12.6421 1.03462 12.6421Z" fill="#6F2268"/>
<path d="M1.03462 8.50143C0.462387 8.50143 0 8.03903 0 7.46678C0 6.89453 0.462387 6.43213 1.03462 6.43213C1.60686 6.43213 2.06924 6.89453 2.06924 7.46678C2.06924 8.03903 1.60686 8.50143 1.03462 8.50143Z" fill="#6F2268"/>
<path d="M3.82983 12.6231C3.2857 12.6231 2.84375 12.1811 2.84375 11.637C2.84375 11.0928 3.2857 10.6509 3.82983 10.6509C4.37397 10.6509 4.81592 11.0928 4.81592 11.637C4.81592 12.1811 4.37397 12.6231 3.82983 12.6231Z" fill="#6F2268"/>
<path d="M3.82983 8.68169C3.2857 8.68169 2.84375 8.23973 2.84375 7.69558C2.84375 7.15143 3.2857 6.70947 3.82983 6.70947C4.37397 6.70947 4.81592 7.15143 4.81592 7.69558C4.81592 8.23973 4.37397 8.68169 3.82983 8.68169Z" fill="#992479"/>
<path d="M6.61663 12.5795C6.1006 12.5795 5.68164 12.1605 5.68164 11.6445C5.68164 11.1284 6.1006 10.7095 6.61663 10.7095C7.13266 10.7095 7.55162 11.1284 7.55162 11.6445C7.55162 12.1605 7.13266 12.5795 6.61663 12.5795Z" fill="#992479"/>
<path d="M6.61663 8.83988C6.1006 8.83988 5.68164 8.42091 5.68164 7.90486C5.68164 7.38882 6.1006 6.96985 6.61663 6.96985C7.13266 6.96985 7.55162 7.38882 7.55162 7.90486C7.55162 8.42091 7.13266 8.83988 6.61663 8.83988Z" fill="#6F2268"/>
<path d="M6.61663 5.09904C6.1006 5.09904 5.68164 4.68007 5.68164 4.16402C5.68164 3.64797 6.1006 3.229 6.61663 3.229C7.13266 3.229 7.55162 3.64797 7.55162 4.16402C7.55162 4.68007 7.13266 5.09904 6.61663 5.09904Z" fill="#6F2268"/>
<path d="M9.15208 12.5424C8.66415 12.5424 8.26562 12.1464 8.26562 11.6559C8.26562 11.1654 8.66159 10.7694 9.15208 10.7694C9.64256 10.7694 10.0385 11.1654 10.0385 11.6559C10.0385 12.1464 9.64256 12.5424 9.15208 12.5424Z" fill="#6F2268"/>
<path d="M9.15208 9.00062C8.66415 9.00062 8.26562 8.60464 8.26562 8.11414C8.26562 7.62364 8.66159 7.22766 9.15208 7.22766C9.64256 7.22766 10.0385 7.62364 10.0385 8.11414C10.0385 8.60464 9.64256 9.00062 9.15208 9.00062Z" fill="#6F2268"/>
<path d="M9.15208 5.45765C8.66415 5.45765 8.26562 5.06167 8.26562 4.57117C8.26562 4.08067 8.66159 3.68469 9.15208 3.68469C9.64256 3.68469 10.0385 4.08067 10.0385 4.57117C10.0385 5.06167 9.64256 5.45765 9.15208 5.45765Z" fill="#6F2268"/>
<path d="M11.4389 12.5234C10.9765 12.5234 10.6035 12.1504 10.6035 11.688C10.6035 11.2256 10.9765 10.8527 11.4389 10.8527C11.9013 10.8527 12.2742 11.2256 12.2742 11.688C12.2742 12.1504 11.9013 12.5234 11.4389 12.5234Z" fill="#992479"/>
<path d="M11.4389 9.18102C10.9765 9.18102 10.6035 8.80804 10.6035 8.34564C10.6035 7.88324 10.9765 7.51025 11.4389 7.51025C11.9013 7.51025 12.2742 7.88324 12.2742 8.34564C12.2742 8.80804 11.9013 9.18102 11.4389 9.18102Z" fill="#6F2268"/>
<path d="M11.4389 5.84252C10.9765 5.84252 10.6035 5.46953 10.6035 5.00714C10.6035 4.54474 10.9765 4.17175 11.4389 4.17175C11.9013 4.17175 12.2742 4.54474 12.2742 5.00714C12.2742 5.46953 11.9013 5.84252 11.4389 5.84252Z" fill="#992479"/>
<path d="M13.5811 12.4591C13.1469 12.4591 12.7969 12.1065 12.7969 11.6748C12.7969 11.243 13.1494 10.8905 13.5811 10.8905C14.0129 10.8905 14.3654 11.243 14.3654 11.6748C14.3654 12.1065 14.0129 12.4591 13.5811 12.4591Z" fill="#6F2268"/>
<path d="M13.5811 9.31577C13.1469 9.31577 12.7969 8.96322 12.7969 8.53148C12.7969 8.09974 13.1494 7.74719 13.5811 7.74719C14.0129 7.74719 14.3654 8.09974 14.3654 8.53148C14.3654 8.96322 14.0129 9.31577 13.5811 9.31577Z" fill="#992479"/>
<path d="M13.5811 6.17393C13.1469 6.17393 12.7969 5.82138 12.7969 5.38964C12.7969 4.95789 13.1494 4.60535 13.5811 4.60535C14.0129 4.60535 14.3654 4.95789 14.3654 5.38964C14.3654 5.82138 14.0129 6.17393 13.5811 6.17393Z" fill="#6F2268"/>
<path d="M13.5811 3.03196C13.1469 3.03196 12.7969 2.67941 12.7969 2.24767C12.7969 1.81593 13.1494 1.46338 13.5811 1.46338C14.0129 1.46338 14.3654 1.81593 14.3654 2.24767C14.3654 2.67941 14.0129 3.03196 13.5811 3.03196Z" fill="#992479"/>
<path d="M15.6107 12.414C15.2045 12.414 14.875 12.0845 14.875 11.6783C14.875 11.2721 15.2045 10.9425 15.6107 10.9425C16.0169 10.9425 16.3465 11.2721 16.3465 11.6783C16.3465 12.0845 16.0169 12.414 15.6107 12.414Z" fill="#6F2268"/>
<path d="M15.6107 9.4726C15.2045 9.4726 14.875 9.14304 14.875 8.73685C14.875 8.33065 15.2045 8.0011 15.6107 8.0011C16.0169 8.0011 16.3465 8.33065 16.3465 8.73685C16.3465 9.14304 16.0169 9.4726 15.6107 9.4726Z" fill="#6F2268"/>
<path d="M15.6107 6.52863C15.2045 6.52863 14.875 6.19907 14.875 5.79288C14.875 5.38668 15.2045 5.05713 15.6107 5.05713C16.0169 5.05713 16.3465 5.38668 16.3465 5.79288C16.3465 6.19907 16.0169 6.52863 15.6107 6.52863Z" fill="#6F2268"/>
<path d="M15.6107 3.58588C15.2045 3.58588 14.875 3.25633 14.875 2.85013C14.875 2.44393 15.2045 2.11438 15.6107 2.11438C16.0169 2.11438 16.3465 2.44393 16.3465 2.85013C16.3465 3.25633 16.0169 3.58588 15.6107 3.58588Z" fill="#992479"/>
<path d="M41.9911 11.1161C45.0507 11.7717 46.5024 12.4585 46.5024 14.6907C46.5024 17.36 44.036 18.2029 42.2877 18.2029C38.9472 18.2029 37.6828 16.2517 37.4643 14.3941H40.1492C40.3989 15.2995 40.8828 15.721 42.2721 15.721C43.3492 15.721 43.8331 15.3776 43.8331 14.8C43.8331 14.16 43.1775 14.1132 41.3511 13.7229C39.5716 13.3483 37.7453 12.6927 37.7453 10.4293C37.7453 8.02536 39.8838 6.87024 41.9599 6.87024C45.0507 6.87024 46.2214 8.60293 46.4087 10.4917H43.7238C43.5677 9.85171 43.2087 9.35219 41.9599 9.35219C40.7736 9.35219 40.4146 9.8361 40.4146 10.3044C40.4146 10.8195 40.9141 10.882 41.9911 11.1161ZM53.4359 9.41463H56.0896V18H53.4359V17.0166C52.8115 17.7971 52.0154 18.2029 50.9696 18.2029C49.0808 18.2029 47.91 16.8761 47.91 14.7844V9.41463H50.5637V14.1912C50.5637 15.1278 50.8447 15.6741 51.8905 15.6741C52.9052 15.6741 53.4359 15.159 53.4359 13.9727V9.41463ZM61.602 18.2029C59.2761 18.2029 57.5747 17.0946 57.2625 15.2839H59.9474C60.0566 15.7522 60.4 16.2049 61.6332 16.2049C62.523 16.2049 62.8039 15.9707 62.8039 15.6117C62.8039 15.2683 62.5386 15.1902 61.0713 14.878C58.6205 14.3473 57.6215 13.6917 57.6215 12.1776C57.6215 10.32 59.1044 9.22732 61.5864 9.22732C64.0059 9.22732 65.1922 10.2732 65.4576 11.9122H62.7727C62.6635 11.5063 62.32 11.2254 61.4771 11.2254C60.6966 11.2254 60.3064 11.4595 60.3064 11.8341C60.3064 12.1307 60.5561 12.162 61.5864 12.3805C64.1464 12.9424 65.5357 13.4576 65.5357 15.2371C65.5357 17.2195 63.803 18.2029 61.602 18.2029ZM73.3693 15.3151L73.822 17.4537C73.3381 17.7971 72.2142 18.2029 71.1371 18.2029C69.4825 18.2029 67.8591 17.2351 67.8591 14.6751V11.9122H66.3918V9.41463H67.8591V7.65073L70.5127 7.07317V9.41463H73.4005V11.9122H70.5127V14.519C70.5127 15.3463 70.9342 15.7366 71.6054 15.7366C72.0737 15.7366 72.6357 15.5493 73.3693 15.3151ZM80.8304 9.41463H83.4841L83.4685 18H80.8148V17.079C80.2685 17.7502 79.488 18.2029 78.3953 18.2029C76.2099 18.2029 74.5241 16.361 74.5241 13.7073C74.5241 11.038 76.2411 9.21171 78.3797 9.21171C79.4724 9.21171 80.2841 9.68 80.8304 10.3824V9.41463ZM79.0197 15.6741C80.0499 15.6741 80.8304 14.9093 80.8304 13.7073C80.8304 12.521 80.0499 11.7405 79.0197 11.7405C77.9894 11.7405 77.2089 12.521 77.2089 13.7073C77.2089 14.9093 78.005 15.6741 79.0197 15.6741ZM86.3729 5.3561C87.3094 5.3561 87.9807 5.9961 87.9807 6.87024C87.9807 7.76 87.3094 8.4 86.3729 8.4C85.4675 8.4 84.765 7.76 84.765 6.87024C84.765 5.9961 85.4675 5.3561 86.3729 5.3561ZM85.046 18V9.41463H87.6997V18H85.046ZM94.3889 9.21171C96.3246 9.21171 97.4953 10.5385 97.4953 12.6302V18H94.8416V13.2234C94.8416 12.2868 94.5607 11.7405 93.4836 11.7405C92.4377 11.7405 91.907 12.2556 91.907 13.442V18H89.2533V9.41463H91.907V10.3824C92.5314 9.61756 93.3275 9.21171 94.3889 9.21171ZM105.129 9.41463H107.783L107.767 18H105.114V17.079C104.567 17.7502 103.787 18.2029 102.694 18.2029C100.509 18.2029 98.8228 16.361 98.8228 13.7073C98.8228 11.038 100.54 9.21171 102.678 9.21171C103.771 9.21171 104.583 9.68 105.129 10.3824V9.41463ZM103.318 15.6741C104.349 15.6741 105.129 14.9093 105.129 13.7073C105.129 12.521 104.349 11.7405 103.318 11.7405C102.288 11.7405 101.508 12.521 101.508 13.7073C101.508 14.9093 102.304 15.6741 103.318 15.6741ZM114.449 9.21171C116.588 9.21171 118.305 11.038 118.305 13.7073C118.305 16.361 116.619 18.2029 114.434 18.2029C113.341 18.2029 112.56 17.7502 111.998 17.079V18H109.345V5.98049H111.998V10.3824C112.545 9.68 113.357 9.21171 114.449 9.21171ZM113.809 15.6741C114.824 15.6741 115.62 14.9093 115.62 13.7073C115.62 12.521 114.839 11.7405 113.809 11.7405C112.779 11.7405 111.998 12.521 111.998 13.7073C111.998 14.9093 112.779 15.6741 113.809 15.6741ZM119.711 18V5.98049H122.364V18H119.711ZM128.289 9.21171C131.13 9.21171 132.987 11.4439 132.722 14.2693H126.462C126.587 15.5961 127.43 16.158 128.351 16.158C129.069 16.158 129.662 15.8146 129.865 15.1902H132.597C132.004 17.3132 130.209 18.2029 128.351 18.2029C125.604 18.2029 123.762 16.2517 123.762 13.7073C123.762 11.1629 125.619 9.21171 128.289 9.21171ZM128.273 11.2566C127.321 11.2566 126.759 11.8341 126.54 12.6615H129.959C129.787 11.8341 129.225 11.2566 128.273 11.2566Z" fill="#282752"/>
<path d="M37.8768 34V25.2727H43.2887V26.4062H39.1935V29.0653H42.9009V30.1946H39.1935V34H37.8768ZM47.0824 34.1321C46.4688 34.1321 45.9332 33.9915 45.4759 33.7102C45.0185 33.429 44.6634 33.0355 44.4105 32.5298C44.1577 32.0241 44.0312 31.4332 44.0312 30.7571C44.0312 30.0781 44.1577 29.4844 44.4105 28.9759C44.6634 28.4673 45.0185 28.0724 45.4759 27.7912C45.9332 27.5099 46.4688 27.3693 47.0824 27.3693C47.696 27.3693 48.2315 27.5099 48.6889 27.7912C49.1463 28.0724 49.5014 28.4673 49.7543 28.9759C50.0071 29.4844 50.1335 30.0781 50.1335 30.7571C50.1335 31.4332 50.0071 32.0241 49.7543 32.5298C49.5014 33.0355 49.1463 33.429 48.6889 33.7102C48.2315 33.9915 47.696 34.1321 47.0824 34.1321ZM47.0866 33.0625C47.4844 33.0625 47.8139 32.9574 48.0753 32.7472C48.3366 32.5369 48.5298 32.2571 48.6548 31.9077C48.7827 31.5582 48.8466 31.1733 48.8466 30.7528C48.8466 30.3352 48.7827 29.9517 48.6548 29.6023C48.5298 29.25 48.3366 28.9673 48.0753 28.7543C47.8139 28.5412 47.4844 28.4347 47.0866 28.4347C46.6861 28.4347 46.3537 28.5412 46.0895 28.7543C45.8281 28.9673 45.6335 29.25 45.5057 29.6023C45.3807 29.9517 45.3182 30.3352 45.3182 30.7528C45.3182 31.1733 45.3807 31.5582 45.5057 31.9077C45.6335 32.2571 45.8281 32.5369 46.0895 32.7472C46.3537 32.9574 46.6861 33.0625 47.0866 33.0625ZM51.5558 34V27.4545H52.7873V28.4943H52.8555C52.9748 28.142 53.185 27.8651 53.4862 27.6634C53.7901 27.4588 54.1339 27.3565 54.5174 27.3565C54.5969 27.3565 54.6907 27.3594 54.7987 27.3651C54.9094 27.3707 54.9961 27.3778 55.0586 27.3864V28.6051C55.0075 28.5909 54.9165 28.5753 54.7859 28.5582C54.6552 28.5384 54.5245 28.5284 54.3938 28.5284C54.0927 28.5284 53.8242 28.5923 53.5884 28.7202C53.3555 28.8452 53.1708 29.0199 53.0344 29.2443C52.8981 29.4659 52.8299 29.7187 52.8299 30.0028V34H51.5558ZM56.1612 34V27.4545H57.3842V28.5199H57.4652C57.6016 28.1591 57.8246 27.8778 58.1342 27.6761C58.4439 27.4716 58.8146 27.3693 59.2464 27.3693C59.6839 27.3693 60.0504 27.4716 60.3459 27.6761C60.6442 27.8807 60.8643 28.1619 61.0064 28.5199H61.0746C61.2308 28.1705 61.4794 27.892 61.8203 27.6847C62.1612 27.4744 62.5675 27.3693 63.0391 27.3693C63.6328 27.3693 64.1172 27.5554 64.4922 27.9276C64.87 28.2997 65.0589 28.8608 65.0589 29.6108V34H63.7848V29.7301C63.7848 29.2869 63.6641 28.9659 63.4226 28.767C63.1811 28.5682 62.8928 28.4688 62.5575 28.4688C62.1428 28.4688 61.8203 28.5966 61.5902 28.8523C61.3601 29.1051 61.245 29.4304 61.245 29.8281V34H59.9751V29.6491C59.9751 29.294 59.8643 29.0085 59.6428 28.7926C59.4212 28.5767 59.1328 28.4688 58.7777 28.4688C58.5362 28.4688 58.3132 28.5327 58.1087 28.6605C57.907 28.7855 57.7436 28.9602 57.6186 29.1847C57.4964 29.4091 57.4354 29.669 57.4354 29.9645V34H56.1612ZM70.0447 34V25.2727H73.2408C73.8601 25.2727 74.3729 25.375 74.7791 25.5795C75.1854 25.7812 75.4893 26.0554 75.6911 26.402C75.8928 26.7457 75.9936 27.1335 75.9936 27.5653C75.9936 27.929 75.9268 28.2358 75.7933 28.4858C75.6598 28.733 75.4808 28.9318 75.2564 29.0824C75.0348 29.2301 74.7905 29.3381 74.5234 29.4062V29.4915C74.8132 29.5057 75.0959 29.5994 75.3714 29.7727C75.6499 29.9432 75.88 30.1861 76.0618 30.5014C76.2436 30.8168 76.3345 31.2003 76.3345 31.652C76.3345 32.098 76.2294 32.4986 76.0192 32.8537C75.8118 33.206 75.4908 33.4858 75.0561 33.6932C74.6214 33.8977 74.0661 34 73.3899 34H70.0447ZM71.3615 32.8707H73.2621C73.8928 32.8707 74.3445 32.7486 74.6172 32.5043C74.8899 32.2599 75.0263 31.9545 75.0263 31.5881C75.0263 31.3125 74.9567 31.0597 74.8175 30.8295C74.6783 30.5994 74.4794 30.4162 74.2209 30.2798C73.9652 30.1435 73.6612 30.0753 73.3089 30.0753H71.3615V32.8707ZM71.3615 29.0483H73.1257C73.4212 29.0483 73.6868 28.9915 73.9226 28.8778C74.1612 28.7642 74.3501 28.6051 74.4893 28.4006C74.6314 28.1932 74.7024 27.9489 74.7024 27.6676C74.7024 27.3068 74.576 27.0043 74.3232 26.7599C74.0703 26.5156 73.6825 26.3935 73.1598 26.3935H71.3615V29.0483ZM81.9403 31.2855V27.4545H83.2188V34H81.9659V32.8665H81.8977C81.7472 33.2159 81.5057 33.5071 81.1733 33.7401C80.8438 33.9702 80.4332 34.0852 79.9418 34.0852C79.5213 34.0852 79.1491 33.9929 78.8253 33.8082C78.5043 33.6207 78.2514 33.3438 78.0668 32.9773C77.8849 32.6108 77.794 32.1577 77.794 31.6179V27.4545H79.0682V31.4645C79.0682 31.9105 79.1918 32.2656 79.4389 32.5298C79.6861 32.794 80.0071 32.9261 80.402 32.9261C80.6406 32.9261 80.8778 32.8665 81.1136 32.7472C81.3523 32.6278 81.5497 32.4474 81.706 32.206C81.8651 31.9645 81.9432 31.6577 81.9403 31.2855ZM84.9308 34V27.4545H86.2049V34H84.9308ZM85.5742 26.4446C85.3526 26.4446 85.1623 26.3707 85.0032 26.223C84.8469 26.0724 84.7688 25.8935 84.7688 25.6861C84.7688 25.4759 84.8469 25.2969 85.0032 25.1491C85.1623 24.9986 85.3526 24.9233 85.5742 24.9233C85.7958 24.9233 85.9847 24.9986 86.141 25.1491C86.3001 25.2969 86.3796 25.4759 86.3796 25.6861C86.3796 25.8935 86.3001 26.0724 86.141 26.223C85.9847 26.3707 85.7958 26.4446 85.5742 26.4446ZM89.1932 25.2727V34H87.919V25.2727H89.1932ZM93.3576 34.1278C92.8292 34.1278 92.3576 33.9929 91.9428 33.723C91.5309 33.4503 91.207 33.0625 90.9712 32.5597C90.7383 32.054 90.6218 31.4474 90.6218 30.7401C90.6218 30.0327 90.7397 29.4276 90.9755 28.9247C91.2141 28.4219 91.5408 28.0369 91.9556 27.7699C92.3704 27.5028 92.8406 27.3693 93.3661 27.3693C93.7724 27.3693 94.0991 27.4375 94.3462 27.5739C94.5962 27.7074 94.7894 27.8636 94.9258 28.0426C95.065 28.2216 95.1729 28.3793 95.2496 28.5156H95.3263V25.2727H96.6005V34H95.3562V32.9815H95.2496C95.1729 33.1207 95.0621 33.2798 94.9173 33.4588C94.7752 33.6378 94.5792 33.794 94.3292 33.9276C94.0792 34.0611 93.7553 34.1278 93.3576 34.1278ZM93.6388 33.0412C94.0053 33.0412 94.315 32.9446 94.5678 32.7514C94.8235 32.5554 95.0167 32.2841 95.1474 31.9375C95.2809 31.5909 95.3477 31.1875 95.3477 30.7273C95.3477 30.2727 95.2823 29.875 95.1516 29.5341C95.021 29.1932 94.8292 28.9276 94.5763 28.7372C94.3235 28.5469 94.011 28.4517 93.6388 28.4517C93.2553 28.4517 92.9357 28.5511 92.68 28.75C92.4244 28.9489 92.2312 29.2202 92.1005 29.5639C91.9727 29.9077 91.9087 30.2955 91.9087 30.7273C91.9087 31.1648 91.9741 31.5582 92.1048 31.9077C92.2354 32.2571 92.4286 32.5341 92.6843 32.7386C92.9428 32.9403 93.261 33.0412 93.6388 33.0412ZM101.24 34.1321C100.595 34.1321 100.04 33.9943 99.5739 33.7188C99.1108 33.4403 98.7528 33.0497 98.5 32.5469C98.25 32.0412 98.125 31.4489 98.125 30.7699C98.125 30.0994 98.25 29.5085 98.5 28.9972C98.7528 28.4858 99.1051 28.0866 99.5568 27.7997C100.011 27.5128 100.543 27.3693 101.151 27.3693C101.52 27.3693 101.878 27.4304 102.224 27.5526C102.571 27.6747 102.882 27.8665 103.158 28.1278C103.433 28.3892 103.651 28.7287 103.81 29.1463C103.969 29.5611 104.048 30.0653 104.048 30.6591V31.1108H98.8452V30.1562H102.8C102.8 29.821 102.732 29.5241 102.595 29.2656C102.459 29.0043 102.267 28.7983 102.02 28.6477C101.776 28.4972 101.489 28.4219 101.159 28.4219C100.801 28.4219 100.489 28.5099 100.222 28.6861C99.9574 28.8594 99.7528 29.0866 99.608 29.3679C99.4659 29.6463 99.3949 29.9489 99.3949 30.2756V31.0213C99.3949 31.4588 99.4716 31.831 99.625 32.1378C99.7812 32.4446 99.9986 32.679 100.277 32.8409C100.555 33 100.881 33.0795 101.253 33.0795C101.494 33.0795 101.714 33.0455 101.913 32.9773C102.112 32.9062 102.284 32.8011 102.429 32.6619C102.574 32.5227 102.685 32.3509 102.761 32.1463L103.967 32.3636C103.871 32.7187 103.697 33.0298 103.447 33.2969C103.2 33.5611 102.889 33.767 102.514 33.9148C102.142 34.0597 101.717 34.1321 101.24 34.1321ZM105.462 34V27.4545H106.694V28.4943H106.762C106.881 28.142 107.091 27.8651 107.392 27.6634C107.696 27.4588 108.04 27.3565 108.424 27.3565C108.503 27.3565 108.597 27.3594 108.705 27.3651C108.816 27.3707 108.902 27.3778 108.965 27.3864V28.6051C108.914 28.5909 108.823 28.5753 108.692 28.5582C108.561 28.5384 108.431 28.5284 108.3 28.5284C107.999 28.5284 107.73 28.5923 107.495 28.7202C107.262 28.8452 107.077 29.0199 106.941 29.2443C106.804 29.4659 106.736 29.7187 106.736 30.0028V34H105.462Z" fill="#9B0577"/>
</svg>
